<svg width="229" height="210" viewBox="0 0 229 210" fill="none" xmlns="http://www.w3.org/2000/svg">
<path fill-rule="evenodd" clip-rule="evenodd" d="M154.33 0.221613C142.61 2.46526 133.526 7.78023 127.948 15.6571C126.787 17.2978 125.833 18.6722 125.829 18.7108C125.825 18.7495 124.726 18.5135 123.387 18.1859C119.674 17.278 111.808 17.407 107.851 18.4408C103.983 19.4516 100.271 21.1552 97.3364 23.267L95.1997 24.8047L92.2497 24.0724C88.4668 23.1339 78.4326 22.7736 74.684 23.4421C68.5773 24.5305 62.934 26.7565 58.1186 29.9753C54.3927 32.4658 49.4321 37.5154 47.2483 41.0406C45.4653 43.9192 43.0485 50.2294 42.5376 53.3402L42.2873 54.8658L38.4006 55.1681C31.4512 55.7086 22.5194 58.2881 21.1323 60.1555C20.1493 61.4787 20.3342 63.26 21.5764 64.4308C22.991 65.7645 23.9772 65.7283 28.1801 64.1868C30.0865 63.4876 33.6694 62.6028 36.1423 62.2199C41.8338 61.3393 47.9017 61.8684 53.9246 63.7707C59.5751 65.5557 60.9283 65.4067 61.8565 62.8968C62.901 60.0716 60.5826 58.3314 53.4435 56.582C51.3612 56.0718 49.5894 55.6078 49.5061 55.5511C49.4223 55.494 49.7649 53.9172 50.2664 52.0464C51.6748 46.7961 53.9317 43.1487 58.3351 39.0065C62.6952 34.9047 65.6461 33.1356 71.1438 31.3274C74.394 30.2587 75.9231 30.0122 80.2926 29.8539C83.4404 29.7397 86.6482 29.8669 88.3101 30.1714C94.8505 31.369 101.768 34.9606 106.172 39.4454C108.973 42.2979 110.512 44.5945 112.484 48.8651C114.186 52.5491 115.016 52.9291 119.115 51.899C120.68 51.506 123.49 51.1843 125.36 51.1843C128.375 51.1843 128.882 51.068 129.852 50.1534C131.321 48.7685 131.299 46.8604 129.798 45.4448C128.673 44.3849 128.545 44.366 123.663 44.5424L118.676 44.7221L116.692 41.3396C114.505 37.6103 107.578 30.6534 104.553 29.148C103.635 28.6911 102.884 28.1746 102.884 27.9999C102.884 27.8257 103.845 27.2239 105.019 26.6629C110.699 23.9494 117.612 23.4518 123.544 25.3292C128.885 27.0194 129.948 26.7557 131.569 23.3413C135.14 15.8163 143.319 9.80762 153.175 7.46822C156.319 6.7216 157.856 6.6078 162.752 6.75813C167.823 6.91393 169.092 7.10541 172.485 8.22619C177.921 10.0218 180.928 11.8056 185.084 15.7008C191.748 21.9472 194.554 29.5238 192.629 36.0805C191.316 40.5586 191.312 40.9457 192.562 42.1253C194.06 43.5371 196.331 43.5875 197.676 42.2378C198.859 41.0499 200.43 35.4771 200.43 32.4646V30.2558L202.1 30.6883C203.019 30.926 205.051 31.6667 206.616 32.334C209.998 33.7764 211.055 33.8369 212.619 32.677C213.96 31.6827 214.204 29.6696 213.155 28.2578C212.262 27.056 206.985 24.8535 202.497 23.8087L198.714 22.9281L197.799 20.8533C195.418 15.4522 188.774 8.44874 183.044 5.29974C176.184 1.53009 169.497 -0.0710732 160.918 0.00241334C157.784 0.0292884 154.82 0.12797 154.33 0.221613ZM218.895 38.3578C217.45 39.7196 217.515 40.8563 219.235 44.3135C221.167 48.197 221.514 53.8071 220.095 58.2126C217.915 64.9784 211.664 70.9291 203.872 73.6569C202.703 74.0663 201.666 74.3258 201.569 74.2339C201.471 74.1419 201.775 72.5554 202.243 70.709C202.712 68.8622 203.097 66.2033 203.099 64.7999C203.102 62.6738 202.931 62.0964 202.072 61.3355C200.658 60.0837 198.467 60.1354 197.069 61.4535C196.21 62.2635 195.976 62.9186 195.976 64.5143C195.976 72.2783 189.756 81.1576 181.705 84.8877C179.858 85.7435 177.736 86.5586 176.991 86.6993C175.667 86.9487 175.612 86.8929 174.619 84.2919C173.175 80.5084 170.853 77.0612 167.725 74.0575C164.314 70.7825 160.708 68.5905 155.923 66.8835L152.17 65.5452L151.574 63.3507C150.346 58.8261 145.671 52.072 143.14 51.1646C141.85 50.7027 139.547 51.4157 138.954 52.4605C138.043 54.0654 138.465 55.6955 140.314 57.7095C142.032 59.5811 144.308 63.2722 144.308 64.1881C144.308 64.4266 143.633 64.6218 142.807 64.6218C137.797 64.6218 128.448 67.214 127.148 68.9634C126.158 70.2963 126.339 72.0751 127.585 73.2492C128.95 74.5371 129.855 74.5387 133.612 73.2609C143.862 69.7751 155.016 71.8764 162.292 78.6641C166.764 82.836 169.251 88.2438 169.251 93.7943C169.251 106.418 158.125 116.272 143.87 116.272C140.231 116.272 134.483 115.18 133.618 114.324C133.417 114.125 134.107 112.598 135.152 110.929C137.015 107.951 138.963 103.033 138.963 101.305C138.963 100.823 138.547 99.9306 138.04 99.3222C137.325 98.4655 136.725 98.2157 135.384 98.2157C133.324 98.2157 132.056 99.2886 131.639 101.384C131.484 102.163 130.529 104.361 129.517 106.267C127.368 110.315 122.131 115.569 117.93 117.891C108.139 123.304 95.3084 124.818 84.1071 121.883L81.5874 121.223L83.4274 116.285L85.267 111.348L87.7101 110.639C90.5033 109.828 94.2773 108.119 95.4238 107.146C96.5885 106.157 96.4291 103.849 95.1097 102.606C93.6844 101.262 92.4595 101.306 89.0151 102.825C83.9757 105.048 79.7225 105.883 73.4871 105.873C69.2535 105.866 67.0718 105.652 64.382 104.976C59.9889 103.873 54.9464 101.556 52.4467 99.4931C49.0776 96.7115 47.6785 96.3655 45.7089 97.8264C44.8047 98.4966 44.5353 99.0673 44.5353 100.31C44.5353 101.65 44.8408 102.198 46.3338 103.534C47.3231 104.42 49.2019 105.809 50.5087 106.621L52.8845 108.097L50.8824 113.45C48.5226 119.758 49.0428 119.441 41.1947 119.352C37.3503 119.308 34.8493 119.042 32.2864 118.405C17.2274 114.66 7.12051 103.575 7.12051 90.8011C7.12051 84.4901 8.77656 79.8634 12.873 74.729C15.8275 71.0265 15.056 67.9812 11.164 67.9812C9.6322 67.9812 9.19258 68.2269 7.59666 69.9759C5.10146 72.71 1.92387 78.638 0.869135 82.5257C-0.195403 86.4503 -0.298294 93.6969 0.650437 97.9188C2.37864 105.608 8.60196 114.035 16.0675 118.794L17.7174 119.846L10.1921 139.75C6.05286 150.697 2.66638 160.272 2.66638 161.029C2.66638 163.367 5.69118 164.894 8.00733 163.726C8.98947 163.23 9.55425 161.858 17.8082 139.933L24.1554 123.072L26.4982 123.832C31.1679 125.346 35.794 126.07 41.0258 126.106L46.2024 126.141L41.477 138.948C37.3645 150.095 36.7512 152.11 36.7463 154.485C36.7414 156.7 36.9423 157.482 37.81 158.629C39.7689 161.218 41.4512 161.604 50.8125 161.615L59.0936 161.624L54.9312 177.677C51.9091 189.333 50.8454 194.115 51.0481 195.134C51.8458 199.143 57.4999 201.178 60.8819 198.673C61.4209 198.274 65.5802 193.336 70.1243 187.701C76.8264 179.389 78.3867 177.202 78.3867 176.121C78.3867 173.132 74.3103 171.837 72.0765 174.117C71.4543 174.752 68.2838 178.578 65.031 182.62C61.7786 186.662 59.233 189.591 59.3742 189.129C60.3327 185.997 67.2514 158.488 67.2514 157.81C67.2514 157.346 66.7592 156.503 66.1579 155.936L65.0648 154.905H54.3544C48.4638 154.905 43.6391 154.764 43.6324 154.59C43.6257 154.417 47.1832 144.49 51.5385 132.529C59.4152 110.897 59.4624 110.785 60.5701 111.048C64.9334 112.084 68.5386 112.562 72.4823 112.627C74.9917 112.669 77.0464 112.767 77.0478 112.846C77.0491 112.924 74.9459 118.551 72.3736 125.35C69.8013 132.149 67.6968 138.252 67.6968 138.913C67.6968 139.574 68.0798 140.561 68.5475 141.106C69.3942 142.093 69.4526 142.098 81.3059 142.308L93.2136 142.518L94.0621 143.59C94.7204 144.422 94.8153 144.893 94.4844 145.69C94.2496 146.255 91.1349 150.307 87.5631 154.695C83.9913 159.084 80.9411 163.113 80.7848 163.65C80.1452 165.846 82.6377 168.216 85.0594 167.715C86.185 167.482 87.6192 165.95 93.2524 158.964C97.0085 154.307 100.385 149.929 100.755 149.236C102.545 145.891 102.017 141.786 99.4311 138.938C96.6469 135.871 95.5271 135.609 85.1917 135.598L76.1846 135.589L77.5498 131.914C78.3003 129.894 79.0463 128.118 79.2076 127.968C79.3684 127.819 81.4044 128.178 83.7317 128.767C87.4375 129.704 88.9034 129.842 95.5351 129.875C101.345 129.904 103.988 129.733 106.893 129.14C113.885 127.711 120.578 124.854 125.888 121.033L127.877 119.602L131.606 120.937L135.334 122.272L134.277 125.046C121.862 157.621 111.347 185.89 111.347 186.69C111.347 188.231 112.067 189.201 113.581 189.698C115.25 190.246 116.839 189.755 117.735 188.413C118.089 187.883 123.852 172.946 130.542 155.22L142.706 122.991L145.623 122.984C151.93 122.968 158.98 120.576 164.665 116.521C167.398 114.573 170.873 110.798 172.702 107.792C174.472 104.884 176.008 100.176 176.255 96.9051L176.497 93.7049L178.801 93.219C183.844 92.1549 190.104 88.6053 194.337 84.4086C195.763 82.9951 197.225 81.8387 197.585 81.8387C197.945 81.8387 199.773 81.5401 201.646 81.1756C212.192 79.1218 220.784 72.9888 225.398 64.2216C228.906 57.5562 228.998 48.1088 225.626 40.9201C223.939 37.3235 221.127 36.2531 218.895 38.3578ZM195.308 92.9297C194.573 93.2375 193.539 93.9388 193.012 94.488C192.442 95.0805 190.03 101.029 187.075 109.134C181.63 124.065 181.397 125.279 183.564 127.466C185.464 129.384 186.681 129.71 191.945 129.71C194.652 129.71 196.867 129.794 196.867 129.898C196.867 130.001 196.053 133.166 195.059 136.931C193.888 141.364 193.324 144.338 193.46 145.368C193.897 148.694 196.487 150.702 200.344 150.704C202.527 150.706 202.858 150.569 204.642 148.921C206.613 147.102 225.557 123.749 227.229 121.078C228.47 119.094 228.251 114.954 226.803 113.036C225.045 110.71 222.678 109.974 216.955 109.974C213.115 109.974 211.99 109.85 212.166 109.449C212.292 109.16 213.216 106.601 214.22 103.762C215.882 99.0597 216 98.4462 215.547 96.8627C214.959 94.8025 213.039 92.9717 211.08 92.6021C208.387 92.0945 196.723 92.3363 195.308 92.9297ZM205.968 105.588C203.19 113.086 203.011 114.554 204.722 115.822C205.804 116.625 206.481 116.692 213.438 116.692C220.404 116.692 220.97 116.749 220.839 117.434C220.692 118.198 201.722 141.986 201.458 141.737C201.377 141.66 202.201 138.158 203.29 133.954C205.391 125.841 205.424 124.358 203.531 123.402C203.082 123.176 199.775 122.991 196.18 122.991C191.139 122.991 189.692 122.871 189.85 122.466C189.963 122.178 191.934 116.792 194.229 110.498L198.404 99.0555H203.396H208.388L205.968 105.588ZM164.371 127.931C163.662 128.472 159.512 138.952 148.955 166.858C141.01 187.861 134.509 205.574 134.509 206.22C134.509 206.867 134.91 207.774 135.4 208.235C136.582 209.35 139.429 209.373 140.481 208.277C141.187 207.543 170.125 131.816 170.137 130.674C170.148 129.618 169.11 128.105 168.068 127.656C166.535 126.998 165.491 127.076 164.371 127.931ZM182.712 154.393C181.944 155.116 170.142 185.59 170.142 186.848C170.142 187.808 171.45 189.349 172.62 189.769C173.925 190.237 176.23 189.543 176.82 188.506C178.033 186.368 188.404 158.03 188.404 156.852C188.404 154.18 184.655 152.56 182.712 154.393ZM31.0864 167.398C30.1613 168.413 16.4635 204.812 16.4693 206.241C16.472 206.876 16.8751 207.774 17.365 208.235C18.5467 209.35 21.3947 209.373 22.4463 208.278C23.5024 207.178 37.0332 171.402 37.0438 169.682C37.0559 167.689 35.8929 166.663 33.6226 166.663C32.3973 166.663 31.5265 166.915 31.0864 167.398ZM84.0292 183.986C82.9375 184.739 75.1516 205.536 75.5267 206.698C76.0469 208.31 77.1057 209.075 78.8161 209.075C79.7109 209.075 80.7968 208.832 81.2289 208.534C82.0075 207.997 89.9674 187.835 89.9674 186.4C89.9674 186 89.5519 185.175 89.0441 184.567C88.3412 183.724 87.7243 183.46 86.4571 183.46C85.5418 183.46 84.4492 183.697 84.0292 183.986Z" fill="black"/>
<path fill-rule="evenodd" clip-rule="evenodd" d="M154.33 0.221613C142.61 2.46526 133.526 7.78023 127.948 15.6571C126.787 17.2978 125.833 18.6722 125.829 18.7108C125.825 18.7495 124.726 18.5135 123.387 18.1859C119.674 17.278 111.808 17.407 107.851 18.4408C103.983 19.4516 100.271 21.1552 97.3364 23.267L95.1997 24.8047L92.2497 24.0724C88.4668 23.1339 78.4326 22.7736 74.684 23.4421C68.5773 24.5305 62.934 26.7565 58.1186 29.9753C54.3927 32.4658 49.4321 37.5154 47.2483 41.0406C45.4653 43.9192 43.0485 50.2294 42.5376 53.3402L42.2873 54.8658L38.4006 55.1681C31.4512 55.7086 22.5194 58.2881 21.1323 60.1555C20.1493 61.4787 20.3342 63.26 21.5764 64.4308C22.991 65.7645 23.9772 65.7283 28.1801 64.1868C30.0865 63.4876 33.6694 62.6028 36.1423 62.2199C41.8338 61.3393 47.9017 61.8684 53.9246 63.7707C59.5751 65.5557 60.9283 65.4067 61.8565 62.8968C62.901 60.0716 60.5826 58.3314 53.4435 56.582C51.3612 56.0718 49.5894 55.6078 49.5061 55.5511C49.4223 55.494 49.7649 53.9172 50.2664 52.0464C51.6748 46.7961 53.9317 43.1487 58.3351 39.0065C62.6952 34.9047 65.6461 33.1356 71.1438 31.3274C74.394 30.2587 75.9231 30.0122 80.2926 29.8539C83.4404 29.7397 86.6482 29.8669 88.3101 30.1714C94.8505 31.369 101.768 34.9606 106.172 39.4454C108.973 42.2979 110.512 44.5945 112.484 48.8651C114.186 52.5491 115.016 52.9291 119.115 51.899C120.68 51.506 123.49 51.1843 125.36 51.1843C128.375 51.1843 128.882 51.068 129.852 50.1534C131.321 48.7685 131.299 46.8604 129.798 45.4448C128.673 44.3849 128.545 44.366 123.663 44.5424L118.676 44.7221L116.692 41.3396C114.505 37.6103 107.578 30.6534 104.553 29.148C103.635 28.6911 102.884 28.1746 102.884 27.9999C102.884 27.8257 103.845 27.2239 105.019 26.6629C110.699 23.9494 117.612 23.4518 123.544 25.3292C128.885 27.0194 129.948 26.7557 131.569 23.3413C135.14 15.8163 143.319 9.80762 153.175 7.46822C156.319 6.7216 157.856 6.6078 162.752 6.75813C167.823 6.91393 169.092 7.10541 172.485 8.22619C177.921 10.0218 180.928 11.8056 185.084 15.7008C191.748 21.9472 194.554 29.5238 192.629 36.0805C191.316 40.5586 191.312 40.9457 192.562 42.1253C194.06 43.5371 196.331 43.5875 197.676 42.2378C198.859 41.0499 200.43 35.4771 200.43 32.4646V30.2558L202.1 30.6883C203.019 30.926 205.051 31.6667 206.616 32.334C209.998 33.7764 211.055 33.8369 212.619 32.677C213.96 31.6827 214.204 29.6696 213.155 28.2578C212.262 27.056 206.985 24.8535 202.497 23.8087L198.714 22.9281L197.799 20.8533C195.418 15.4522 188.774 8.44874 183.044 5.29974C176.184 1.53009 169.497 -0.0710732 160.918 0.00241334C157.784 0.0292884 154.82 0.12797 154.33 0.221613ZM218.895 38.3578C217.45 39.7196 217.515 40.8563 219.235 44.3135C221.167 48.197 221.514 53.8071 220.095 58.2126C217.915 64.9784 211.664 70.9291 203.872 73.6569C202.703 74.0663 201.666 74.3258 201.569 74.2339C201.471 74.1419 201.775 72.5554 202.243 70.709C202.712 68.8622 203.097 66.2033 203.099 64.7999C203.102 62.6738 202.931 62.0964 202.072 61.3355C200.658 60.0837 198.467 60.1354 197.069 61.4535C196.21 62.2635 195.976 62.9186 195.976 64.5143C195.976 72.2783 189.756 81.1576 181.705 84.8877C179.858 85.7435 177.736 86.5586 176.991 86.6993C175.667 86.9487 175.612 86.8929 174.619 84.2919C173.175 80.5084 170.853 77.0612 167.725 74.0575C164.314 70.7825 160.708 68.5905 155.923 66.8835L152.17 65.5452L151.574 63.3507C150.346 58.8261 145.671 52.072 143.14 51.1646C141.85 50.7027 139.547 51.4157 138.954 52.4605C138.043 54.0654 138.465 55.6955 140.314 57.7095C142.032 59.5811 144.308 63.2722 144.308 64.1881C144.308 64.4266 143.633 64.6218 142.807 64.6218C137.797 64.6218 128.448 67.214 127.148 68.9634C126.158 70.2963 126.339 72.0751 127.585 73.2492C128.95 74.5371 129.855 74.5387 133.612 73.2609C143.862 69.7751 155.016 71.8764 162.292 78.6641C166.764 82.836 169.251 88.2438 169.251 93.7943C169.251 106.418 158.125 116.272 143.87 116.272C140.231 116.272 134.483 115.18 133.618 114.324C133.417 114.125 134.107 112.598 135.152 110.929C137.015 107.951 138.963 103.033 138.963 101.305C138.963 100.823 138.547 99.9306 138.04 99.3222C137.325 98.4655 136.725 98.2157 135.384 98.2157C133.324 98.2157 132.056 99.2886 131.639 101.384C131.484 102.163 130.529 104.361 129.517 106.267C127.368 110.315 122.131 115.569 117.93 117.891C108.139 123.304 95.3084 124.818 84.1071 121.883L81.5874 121.223L83.4274 116.285L85.267 111.348L87.7101 110.639C90.5033 109.828 94.2773 108.119 95.4238 107.146C96.5885 106.157 96.4291 103.849 95.1097 102.606C93.6844 101.262 92.4595 101.306 89.0151 102.825C83.9757 105.048 79.7225 105.883 73.4871 105.873C69.2535 105.866 67.0718 105.652 64.382 104.976C59.9889 103.873 54.9464 101.556 52.4467 99.4931C49.0776 96.7115 47.6785 96.3655 45.7089 97.8264C44.8047 98.4966 44.5353 99.0673 44.5353 100.31C44.5353 101.65 44.8408 102.198 46.3338 103.534C47.3231 104.42 49.2019 105.809 50.5087 106.621L52.8845 108.097L50.8824 113.45C48.5226 119.758 49.0428 119.441 41.1947 119.352C37.3503 119.308 34.8493 119.042 32.2864 118.405C17.2274 114.66 7.12051 103.575 7.12051 90.8011C7.12051 84.4901 8.77656 79.8634 12.873 74.729C15.8275 71.0265 15.056 67.9812 11.164 67.9812C9.6322 67.9812 9.19258 68.2269 7.59666 69.9759C5.10146 72.71 1.92387 78.638 0.869135 82.5257C-0.195403 86.4503 -0.298294 93.6969 0.650437 97.9188C2.37864 105.608 8.60196 114.035 16.0675 118.794L17.7174 119.846L10.1921 139.75C6.05286 150.697 2.66638 160.272 2.66638 161.029C2.66638 163.367 5.69118 164.894 8.00733 163.726C8.98947 163.23 9.55425 161.858 17.8082 139.933L24.1554 123.072L26.4982 123.832C31.1679 125.346 35.794 126.07 41.0258 126.106L46.2024 126.141L41.477 138.948C37.3645 150.095 36.7512 152.11 36.7463 154.485C36.7414 156.7 36.9423 157.482 37.81 158.629C39.7689 161.218 41.4512 161.604 50.8125 161.615L59.0936 161.624L54.9312 177.677C51.9091 189.333 50.8454 194.115 51.0481 195.134C51.8458 199.143 57.4999 201.178 60.8819 198.673C61.4209 198.274 65.5802 193.336 70.1243 187.701C76.8264 179.389 78.3867 177.202 78.3867 176.121C78.3867 173.132 74.3103 171.837 72.0765 174.117C71.4543 174.752 68.2838 178.578 65.031 182.62C61.7786 186.662 59.233 189.591 59.3742 189.129C60.3327 185.997 67.2514 158.488 67.2514 157.81C67.2514 157.346 66.7592 156.503 66.1579 155.936L65.0648 154.905H54.3544C48.4638 154.905 43.6391 154.764 43.6324 154.59C43.6257 154.417 47.1832 144.49 51.5385 132.529C59.4152 110.897 59.4624 110.785 60.5701 111.048C64.9334 112.084 68.5386 112.562 72.4823 112.627C74.9917 112.669 77.0464 112.767 77.0478 112.846C77.0491 112.924 74.9459 118.551 72.3736 125.35C69.8013 132.149 67.6968 138.252 67.6968 138.913C67.6968 139.574 68.0798 140.561 68.5475 141.106C69.3942 142.093 69.4526 142.098 81.3059 142.308L93.2136 142.518L94.0621 143.59C94.7204 144.422 94.8153 144.893 94.4844 145.69C94.2496 146.255 91.1349 150.307 87.5631 154.695C83.9913 159.084 80.9411 163.113 80.7848 163.65C80.1452 165.846 82.6377 168.216 85.0594 167.715C86.185 167.482 87.6192 165.95 93.2524 158.964C97.0085 154.307 100.385 149.929 100.755 149.236C102.545 145.891 102.017 141.786 99.4311 138.938C96.6469 135.871 95.5271 135.609 85.1917 135.598L76.1846 135.589L77.5498 131.914C78.3003 129.894 79.0463 128.118 79.2076 127.968C79.3684 127.819 81.4044 128.178 83.7317 128.767C87.4375 129.704 88.9034 129.842 95.5351 129.875C101.345 129.904 103.988 129.733 106.893 129.14C113.885 127.711 120.578 124.854 125.888 121.033L127.877 119.602L131.606 120.937L135.334 122.272L134.277 125.046C121.862 157.621 111.347 185.89 111.347 186.69C111.347 188.231 112.067 189.201 113.581 189.698C115.25 190.246 116.839 189.755 117.735 188.413C118.089 187.883 123.852 172.946 130.542 155.22L142.706 122.991L145.623 122.984C151.93 122.968 158.98 120.576 164.665 116.521C167.398 114.573 170.873 110.798 172.702 107.792C174.472 104.884 176.008 100.176 176.255 96.9051L176.497 93.7049L178.801 93.219C183.844 92.1549 190.104 88.6053 194.337 84.4086C195.763 82.9951 197.225 81.8387 197.585 81.8387C197.945 81.8387 199.773 81.5401 201.646 81.1756C212.192 79.1218 220.784 72.9888 225.398 64.2216C228.906 57.5562 228.998 48.1088 225.626 40.9201C223.939 37.3235 221.127 36.2531 218.895 38.3578ZM195.308 92.9297C194.573 93.2375 193.539 93.9388 193.012 94.488C192.442 95.0805 190.03 101.029 187.075 109.134C181.63 124.065 181.397 125.279 183.564 127.466C185.464 129.384 186.681 129.71 191.945 129.71C194.652 129.71 196.867 129.794 196.867 129.898C196.867 130.001 196.053 133.166 195.059 136.931C193.888 141.364 193.324 144.338 193.46 145.368C193.897 148.694 196.487 150.702 200.344 150.704C202.527 150.706 202.858 150.569 204.642 148.921C206.613 147.102 225.557 123.749 227.229 121.078C228.47 119.094 228.251 114.954 226.803 113.036C225.045 110.71 222.678 109.974 216.955 109.974C213.115 109.974 211.99 109.85 212.166 109.449C212.292 109.16 213.216 106.601 214.22 103.762C215.882 99.0597 216 98.4462 215.547 96.8627C214.959 94.8025 213.039 92.9717 211.08 92.6021C208.387 92.0945 196.723 92.3363 195.308 92.9297ZM205.968 105.588C203.19 113.086 203.011 114.554 204.722 115.822C205.804 116.625 206.481 116.692 213.438 116.692C220.404 116.692 220.97 116.749 220.839 117.434C220.692 118.198 201.722 141.986 201.458 141.737C201.377 141.66 202.201 138.158 203.29 133.954C205.391 125.841 205.424 124.358 203.531 123.402C203.082 123.176 199.775 122.991 196.18 122.991C191.139 122.991 189.692 122.871 189.85 122.466C189.963 122.178 191.934 116.792 194.229 110.498L198.404 99.0555H203.396H208.388L205.968 105.588ZM164.371 127.931C163.662 128.472 159.512 138.952 148.955 166.858C141.01 187.861 134.509 205.574 134.509 206.22C134.509 206.867 134.91 207.774 135.4 208.235C136.582 209.35 139.429 209.373 140.481 208.277C141.187 207.543 170.125 131.816 170.137 130.674C170.148 129.618 169.11 128.105 168.068 127.656C166.535 126.998 165.491 127.076 164.371 127.931ZM182.712 154.393C181.944 155.116 170.142 185.59 170.142 186.848C170.142 187.808 171.45 189.349 172.62 189.769C173.925 190.237 176.23 189.543 176.82 188.506C178.033 186.368 188.404 158.03 188.404 156.852C188.404 154.18 184.655 152.56 182.712 154.393ZM31.0864 167.398C30.1613 168.413 16.4635 204.812 16.4693 206.241C16.472 206.876 16.8751 207.774 17.365 208.235C18.5467 209.35 21.3947 209.373 22.4463 208.278C23.5024 207.178 37.0332 171.402 37.0438 169.682C37.0559 167.689 35.8929 166.663 33.6226 166.663C32.3973 166.663 31.5265 166.915 31.0864 167.398ZM84.0292 183.986C82.9375 184.739 75.1516 205.536 75.5267 206.698C76.0469 208.31 77.1057 209.075 78.8161 209.075C79.7109 209.075 80.7968 208.832 81.2289 208.534C82.0075 207.997 89.9674 187.835 89.9674 186.4C89.9674 186 89.5519 185.175 89.0441 184.567C88.3412 183.724 87.7243 183.46 86.4571 183.46C85.5418 183.46 84.4492 183.697 84.0292 183.986Z" fill="black"/>
<path fill-rule="evenodd" clip-rule="evenodd" d="M154.33 0.221613C142.61 2.46526 133.526 7.78023 127.948 15.6571C126.787 17.2978 125.833 18.6722 125.829 18.7108C125.825 18.7495 124.726 18.5135 123.387 18.1859C119.674 17.278 111.808 17.407 107.851 18.4408C103.983 19.4516 100.271 21.1552 97.3364 23.267L95.1997 24.8047L92.2497 24.0724C88.4668 23.1339 78.4326 22.7736 74.684 23.4421C68.5773 24.5305 62.934 26.7565 58.1186 29.9753C54.3927 32.4658 49.4321 37.5154 47.2483 41.0406C45.4653 43.9192 43.0485 50.2294 42.5376 53.3402L42.2873 54.8658L38.4006 55.1681C31.4512 55.7086 22.5194 58.2881 21.1323 60.1555C20.1493 61.4787 20.3342 63.26 21.5764 64.4308C22.991 65.7645 23.9772 65.7283 28.1801 64.1868C30.0865 63.4876 33.6694 62.6028 36.1423 62.2199C41.8338 61.3393 47.9017 61.8684 53.9246 63.7707C59.5751 65.5557 60.9283 65.4067 61.8565 62.8968C62.901 60.0716 60.5826 58.3314 53.4435 56.582C51.3612 56.0718 49.5894 55.6078 49.5061 55.5511C49.4223 55.494 49.7649 53.9172 50.2664 52.0464C51.6748 46.7961 53.9317 43.1487 58.3351 39.0065C62.6952 34.9047 65.6461 33.1356 71.1438 31.3274C74.394 30.2587 75.9231 30.0122 80.2926 29.8539C83.4404 29.7397 86.6482 29.8669 88.3101 30.1714C94.8505 31.369 101.768 34.9606 106.172 39.4454C108.973 42.2979 110.512 44.5945 112.484 48.8651C114.186 52.5491 115.016 52.9291 119.115 51.899C120.68 51.506 123.49 51.1843 125.36 51.1843C128.375 51.1843 128.882 51.068 129.852 50.1534C131.321 48.7685 131.299 46.8604 129.798 45.4448C128.673 44.3849 128.545 44.366 123.663 44.5424L118.676 44.7221L116.692 41.3396C114.505 37.6103 107.578 30.6534 104.553 29.148C103.635 28.6911 102.884 28.1746 102.884 27.9999C102.884 27.8257 103.845 27.2239 105.019 26.6629C110.699 23.9494 117.612 23.4518 123.544 25.3292C128.885 27.0194 129.948 26.7557 131.569 23.3413C135.14 15.8163 143.319 9.80762 153.175 7.46822C156.319 6.7216 157.856 6.6078 162.752 6.75813C167.823 6.91393 169.092 7.10541 172.485 8.22619C177.921 10.0218 180.928 11.8056 185.084 15.7008C191.748 21.9472 194.554 29.5238 192.629 36.0805C191.316 40.5586 191.312 40.9457 192.562 42.1253C194.06 43.5371 196.331 43.5875 197.676 42.2378C198.859 41.0499 200.43 35.4771 200.43 32.4646V30.2558L202.1 30.6883C203.019 30.926 205.051 31.6667 206.616 32.334C209.998 33.7764 211.055 33.8369 212.619 32.677C213.96 31.6827 214.204 29.6696 213.155 28.2578C212.262 27.056 206.985 24.8535 202.497 23.8087L198.714 22.9281L197.799 20.8533C195.418 15.4522 188.774 8.44874 183.044 5.29974C176.184 1.53009 169.497 -0.0710732 160.918 0.00241334C157.784 0.0292884 154.82 0.12797 154.33 0.221613ZM218.895 38.3578C217.45 39.7196 217.515 40.8563 219.235 44.3135C221.167 48.197 221.514 53.8071 220.095 58.2126C217.915 64.9784 211.664 70.9291 203.872 73.6569C202.703 74.0663 201.666 74.3258 201.569 74.2339C201.471 74.1419 201.775 72.5554 202.243 70.709C202.712 68.8622 203.097 66.2033 203.099 64.7999C203.102 62.6738 202.931 62.0964 202.072 61.3355C200.658 60.0837 198.467 60.1354 197.069 61.4535C196.21 62.2635 195.976 62.9186 195.976 64.5143C195.976 72.2783 189.756 81.1576 181.705 84.8877C179.858 85.7435 177.736 86.5586 176.991 86.6993C175.667 86.9487 175.612 86.8929 174.619 84.2919C173.175 80.5084 170.853 77.0612 167.725 74.0575C164.314 70.7825 160.708 68.5905 155.923 66.8835L152.17 65.5452L151.574 63.3507C150.346 58.8261 145.671 52.072 143.14 51.1646C141.85 50.7027 139.547 51.4157 138.954 52.4605C138.043 54.0654 138.465 55.6955 140.314 57.7095C142.032 59.5811 144.308 63.2722 144.308 64.1881C144.308 64.4266 143.633 64.6218 142.807 64.6218C137.797 64.6218 128.448 67.214 127.148 68.9634C126.158 70.2963 126.339 72.0751 127.585 73.2492C128.95 74.5371 129.855 74.5387 133.612 73.2609C143.862 69.7751 155.016 71.8764 162.292 78.6641C166.764 82.836 169.251 88.2438 169.251 93.7943C169.251 106.418 158.125 116.272 143.87 116.272C140.231 116.272 134.483 115.18 133.618 114.324C133.417 114.125 134.107 112.598 135.152 110.929C137.015 107.951 138.963 103.033 138.963 101.305C138.963 100.823 138.547 99.9306 138.04 99.3222C137.325 98.4655 136.725 98.2157 135.384 98.2157C133.324 98.2157 132.056 99.2886 131.639 101.384C131.484 102.163 130.529 104.361 129.517 106.267C127.368 110.315 122.131 115.569 117.93 117.891C108.139 123.304 95.3084 124.818 84.1071 121.883L81.5874 121.223L83.4274 116.285L85.267 111.348L87.7101 110.639C90.5033 109.828 94.2773 108.119 95.4238 107.146C96.5885 106.157 96.4291 103.849 95.1097 102.606C93.6844 101.262 92.4595 101.306 89.0151 102.825C83.9757 105.048 79.7225 105.883 73.4871 105.873C69.2535 105.866 67.0718 105.652 64.382 104.976C59.9889 103.873 54.9464 101.556 52.4467 99.4931C49.0776 96.7115 47.6785 96.3655 45.7089 97.8264C44.8047 98.4966 44.5353 99.0673 44.5353 100.31C44.5353 101.65 44.8408 102.198 46.3338 103.534C47.3231 104.42 49.2019 105.809 50.5087 106.621L52.8845 108.097L50.8824 113.45C48.5226 119.758 49.0428 119.441 41.1947 119.352C37.3503 119.308 34.8493 119.042 32.2864 118.405C17.2274 114.66 7.12051 103.575 7.12051 90.8011C7.12051 84.4901 8.77656 79.8634 12.873 74.729C15.8275 71.0265 15.056 67.9812 11.164 67.9812C9.6322 67.9812 9.19258 68.2269 7.59666 69.9759C5.10146 72.71 1.92387 78.638 0.869135 82.5257C-0.195403 86.4503 -0.298294 93.6969 0.650437 97.9188C2.37864 105.608 8.60196 114.035 16.0675 118.794L17.7174 119.846L10.1921 139.75C6.05286 150.697 2.66638 160.272 2.66638 161.029C2.66638 163.367 5.69118 164.894 8.00733 163.726C8.98947 163.23 9.55425 161.858 17.8082 139.933L24.1554 123.072L26.4982 123.832C31.1679 125.346 35.794 126.07 41.0258 126.106L46.2024 126.141L41.477 138.948C37.3645 150.095 36.7512 152.11 36.7463 154.485C36.7414 156.7 36.9423 157.482 37.81 158.629C39.7689 161.218 41.4512 161.604 50.8125 161.615L59.0936 161.624L54.9312 177.677C51.9091 189.333 50.8454 194.115 51.0481 195.134C51.8458 199.143 57.4999 201.178 60.8819 198.673C61.4209 198.274 65.5802 193.336 70.1243 187.701C76.8264 179.389 78.3867 177.202 78.3867 176.121C78.3867 173.132 74.3103 171.837 72.0765 174.117C71.4543 174.752 68.2838 178.578 65.031 182.62C61.7786 186.662 59.233 189.591 59.3742 189.129C60.3327 185.997 67.2514 158.488 67.2514 157.81C67.2514 157.346 66.7592 156.503 66.1579 155.936L65.0648 154.905H54.3544C48.4638 154.905 43.6391 154.764 43.6324 154.59C43.6257 154.417 47.1832 144.49 51.5385 132.529C59.4152 110.897 59.4624 110.785 60.5701 111.048C64.9334 112.084 68.5386 112.562 72.4823 112.627C74.9917 112.669 77.0464 112.767 77.0478 112.846C77.0491 112.924 74.9459 118.551 72.3736 125.35C69.8013 132.149 67.6968 138.252 67.6968 138.913C67.6968 139.574 68.0798 140.561 68.5475 141.106C69.3942 142.093 69.4526 142.098 81.3059 142.308L93.2136 142.518L94.0621 143.59C94.7204 144.422 94.8153 144.893 94.4844 145.69C94.2496 146.255 91.1349 150.307 87.5631 154.695C83.9913 159.084 80.9411 163.113 80.7848 163.65C80.1452 165.846 82.6377 168.216 85.0594 167.715C86.185 167.482 87.6192 165.95 93.2524 158.964C97.0085 154.307 100.385 149.929 100.755 149.236C102.545 145.891 102.017 141.786 99.4311 138.938C96.6469 135.871 95.5271 135.609 85.1917 135.598L76.1846 135.589L77.5498 131.914C78.3003 129.894 79.0463 128.118 79.2076 127.968C79.3684 127.819 81.4044 128.178 83.7317 128.767C87.4375 129.704 88.9034 129.842 95.5351 129.875C101.345 129.904 103.988 129.733 106.893 129.14C113.885 127.711 120.578 124.854 125.888 121.033L127.877 119.602L131.606 120.937L135.334 122.272L134.277 125.046C121.862 157.621 111.347 185.89 111.347 186.69C111.347 188.231 112.067 189.201 113.581 189.698C115.25 190.246 116.839 189.755 117.735 188.413C118.089 187.883 123.852 172.946 130.542 155.22L142.706 122.991L145.623 122.984C151.93 122.968 158.98 120.576 164.665 116.521C167.398 114.573 170.873 110.798 172.702 107.792C174.472 104.884 176.008 100.176 176.255 96.9051L176.497 93.7049L178.801 93.219C183.844 92.1549 190.104 88.6053 194.337 84.4086C195.763 82.9951 197.225 81.8387 197.585 81.8387C197.945 81.8387 199.773 81.5401 201.646 81.1756C212.192 79.1218 220.784 72.9888 225.398 64.2216C228.906 57.5562 228.998 48.1088 225.626 40.9201C223.939 37.3235 221.127 36.2531 218.895 38.3578ZM195.308 92.9297C194.573 93.2375 193.539 93.9388 193.012 94.488C192.442 95.0805 190.03 101.029 187.075 109.134C181.63 124.065 181.397 125.279 183.564 127.466C185.464 129.384 186.681 129.71 191.945 129.71C194.652 129.71 196.867 129.794 196.867 129.898C196.867 130.001 196.053 133.166 195.059 136.931C193.888 141.364 193.324 144.338 193.46 145.368C193.897 148.694 196.487 150.702 200.344 150.704C202.527 150.706 202.858 150.569 204.642 148.921C206.613 147.102 225.557 123.749 227.229 121.078C228.47 119.094 228.251 114.954 226.803 113.036C225.045 110.71 222.678 109.974 216.955 109.974C213.115 109.974 211.99 109.85 212.166 109.449C212.292 109.16 213.216 106.601 214.22 103.762C215.882 99.0597 216 98.4462 215.547 96.8627C214.959 94.8025 213.039 92.9717 211.08 92.6021C208.387 92.0945 196.723 92.3363 195.308 92.9297ZM205.968 105.588C203.19 113.086 203.011 114.554 204.722 115.822C205.804 116.625 206.481 116.692 213.438 116.692C220.404 116.692 220.97 116.749 220.839 117.434C220.692 118.198 201.722 141.986 201.458 141.737C201.377 141.66 202.201 138.158 203.29 133.954C205.391 125.841 205.424 124.358 203.531 123.402C203.082 123.176 199.775 122.991 196.18 122.991C191.139 122.991 189.692 122.871 189.85 122.466C189.963 122.178 191.934 116.792 194.229 110.498L198.404 99.0555H203.396H208.388L205.968 105.588ZM164.371 127.931C163.662 128.472 159.512 138.952 148.955 166.858C141.01 187.861 134.509 205.574 134.509 206.22C134.509 206.867 134.91 207.774 135.4 208.235C136.582 209.35 139.429 209.373 140.481 208.277C141.187 207.543 170.125 131.816 170.137 130.674C170.148 129.618 169.11 128.105 168.068 127.656C166.535 126.998 165.491 127.076 164.371 127.931ZM182.712 154.393C181.944 155.116 170.142 185.59 170.142 186.848C170.142 187.808 171.45 189.349 172.62 189.769C173.925 190.237 176.23 189.543 176.82 188.506C178.033 186.368 188.404 158.03 188.404 156.852C188.404 154.18 184.655 152.56 182.712 154.393ZM31.0864 167.398C30.1613 168.413 16.4635 204.812 16.4693 206.241C16.472 206.876 16.8751 207.774 17.365 208.235C18.5467 209.35 21.3947 209.373 22.4463 208.278C23.5024 207.178 37.0332 171.402 37.0438 169.682C37.0559 167.689 35.8929 166.663 33.6226 166.663C32.3973 166.663 31.5265 166.915 31.0864 167.398ZM84.0292 183.986C82.9375 184.739 75.1516 205.536 75.5267 206.698C76.0469 208.31 77.1057 209.075 78.8161 209.075C79.7109 209.075 80.7968 208.832 81.2289 208.534C82.0075 207.997 89.9674 187.835 89.9674 186.4C89.9674 186 89.5519 185.175 89.0441 184.567C88.3412 183.724 87.7243 183.46 86.4571 183.46C85.5418 183.46 84.4492 183.697 84.0292 183.986Z" fill="black"/>
<path fill-rule="evenodd" clip-rule="evenodd" d="M154.33 0.221613C142.61 2.46526 133.526 7.78023 127.948 15.6571C126.787 17.2978 125.833 18.6722 125.829 18.7108C125.825 18.7495 124.726 18.5135 123.387 18.1859C119.674 17.278 111.808 17.407 107.851 18.4408C103.983 19.4516 100.271 21.1552 97.3364 23.267L95.1997 24.8047L92.2497 24.0724C88.4668 23.1339 78.4326 22.7736 74.684 23.4421C68.5773 24.5305 62.934 26.7565 58.1186 29.9753C54.3927 32.4658 49.4321 37.5154 47.2483 41.0406C45.4653 43.9192 43.0485 50.2294 42.5376 53.3402L42.2873 54.8658L38.4006 55.1681C31.4512 55.7086 22.5194 58.2881 21.1323 60.1555C20.1493 61.4787 20.3342 63.26 21.5764 64.4308C22.991 65.7645 23.9772 65.7283 28.1801 64.1868C30.0865 63.4876 33.6694 62.6028 36.1423 62.2199C41.8338 61.3393 47.9017 61.8684 53.9246 63.7707C59.5751 65.5557 60.9283 65.4067 61.8565 62.8968C62.901 60.0716 60.5826 58.3314 53.4435 56.582C51.3612 56.0718 49.5894 55.6078 49.5061 55.5511C49.4223 55.494 49.7649 53.9172 50.2664 52.0464C51.6748 46.7961 53.9317 43.1487 58.3351 39.0065C62.6952 34.9047 65.6461 33.1356 71.1438 31.3274C74.394 30.2587 75.9231 30.0122 80.2926 29.8539C83.4404 29.7397 86.6482 29.8669 88.3101 30.1714C94.8505 31.369 101.768 34.9606 106.172 39.4454C108.973 42.2979 110.512 44.5945 112.484 48.8651C114.186 52.5491 115.016 52.9291 119.115 51.899C120.68 51.506 123.49 51.1843 125.36 51.1843C128.375 51.1843 128.882 51.068 129.852 50.1534C131.321 48.7685 131.299 46.8604 129.798 45.4448C128.673 44.3849 128.545 44.366 123.663 44.5424L118.676 44.7221L116.692 41.3396C114.505 37.6103 107.578 30.6534 104.553 29.148C103.635 28.6911 102.884 28.1746 102.884 27.9999C102.884 27.8257 103.845 27.2239 105.019 26.6629C110.699 23.9494 117.612 23.4518 123.544 25.3292C128.885 27.0194 129.948 26.7557 131.569 23.3413C135.14 15.8163 143.319 9.80762 153.175 7.46822C156.319 6.7216 157.856 6.6078 162.752 6.75813C167.823 6.91393 169.092 7.10541 172.485 8.22619C177.921 10.0218 180.928 11.8056 185.084 15.7008C191.748 21.9472 194.554 29.5238 192.629 36.0805C191.316 40.5586 191.312 40.9457 192.562 42.1253C194.06 43.5371 196.331 43.5875 197.676 42.2378C198.859 41.0499 200.43 35.4771 200.43 32.4646V30.2558L202.1 30.6883C203.019 30.926 205.051 31.6667 206.616 32.334C209.998 33.7764 211.055 33.8369 212.619 32.677C213.96 31.6827 214.204 29.6696 213.155 28.2578C212.262 27.056 206.985 24.8535 202.497 23.8087L198.714 22.9281L197.799 20.8533C195.418 15.4522 188.774 8.44874 183.044 5.29974C176.184 1.53009 169.497 -0.0710732 160.918 0.00241334C157.784 0.0292884 154.82 0.12797 154.33 0.221613ZM218.895 38.3578C217.45 39.7196 217.515 40.8563 219.235 44.3135C221.167 48.197 221.514 53.8071 220.095 58.2126C217.915 64.9784 211.664 70.9291 203.872 73.6569C202.703 74.0663 201.666 74.3258 201.569 74.2339C201.471 74.1419 201.775 72.5554 202.243 70.709C202.712 68.8622 203.097 66.2033 203.099 64.7999C203.102 62.6738 202.931 62.0964 202.072 61.3355C200.658 60.0837 198.467 60.1354 197.069 61.4535C196.21 62.2635 195.976 62.9186 195.976 64.5143C195.976 72.2783 189.756 81.1576 181.705 84.8877C179.858 85.7435 177.736 86.5586 176.991 86.6993C175.667 86.9487 175.612 86.8929 174.619 84.2919C173.175 80.5084 170.853 77.0612 167.725 74.0575C164.314 70.7825 160.708 68.5905 155.923 66.8835L152.17 65.5452L151.574 63.3507C150.346 58.8261 145.671 52.072 143.14 51.1646C141.85 50.7027 139.547 51.4157 138.954 52.4605C138.043 54.0654 138.465 55.6955 140.314 57.7095C142.032 59.5811 144.308 63.2722 144.308 64.1881C144.308 64.4266 143.633 64.6218 142.807 64.6218C137.797 64.6218 128.448 67.214 127.148 68.9634C126.158 70.2963 126.339 72.0751 127.585 73.2492C128.95 74.5371 129.855 74.5387 133.612 73.2609C143.862 69.7751 155.016 71.8764 162.292 78.6641C166.764 82.836 169.251 88.2438 169.251 93.7943C169.251 106.418 158.125 116.272 143.87 116.272C140.231 116.272 134.483 115.18 133.618 114.324C133.417 114.125 134.107 112.598 135.152 110.929C137.015 107.951 138.963 103.033 138.963 101.305C138.963 100.823 138.547 99.9306 138.04 99.3222C137.325 98.4655 136.725 98.2157 135.384 98.2157C133.324 98.2157 132.056 99.2886 131.639 101.384C131.484 102.163 130.529 104.361 129.517 106.267C127.368 110.315 122.131 115.569 117.93 117.891C108.139 123.304 95.3084 124.818 84.1071 121.883L81.5874 121.223L83.4274 116.285L85.267 111.348L87.7101 110.639C90.5033 109.828 94.2773 108.119 95.4238 107.146C96.5885 106.157 96.4291 103.849 95.1097 102.606C93.6844 101.262 92.4595 101.306 89.0151 102.825C83.9757 105.048 79.7225 105.883 73.4871 105.873C69.2535 105.866 67.0718 105.652 64.382 104.976C59.9889 103.873 54.9464 101.556 52.4467 99.4931C49.0776 96.7115 47.6785 96.3655 45.7089 97.8264C44.8047 98.4966 44.5353 99.0673 44.5353 100.31C44.5353 101.65 44.8408 102.198 46.3338 103.534C47.3231 104.42 49.2019 105.809 50.5087 106.621L52.8845 108.097L50.8824 113.45C48.5226 119.758 49.0428 119.441 41.1947 119.352C37.3503 119.308 34.8493 119.042 32.2864 118.405C17.2274 114.66 7.12051 103.575 7.12051 90.8011C7.12051 84.4901 8.77656 79.8634 12.873 74.729C15.8275 71.0265 15.056 67.9812 11.164 67.9812C9.6322 67.9812 9.19258 68.2269 7.59666 69.9759C5.10146 72.71 1.92387 78.638 0.869135 82.5257C-0.195403 86.4503 -0.298294 93.6969 0.650437 97.9188C2.37864 105.608 8.60196 114.035 16.0675 118.794L17.7174 119.846L10.1921 139.75C6.05286 150.697 2.66638 160.272 2.66638 161.029C2.66638 163.367 5.69118 164.894 8.00733 163.726C8.98947 163.23 9.55425 161.858 17.8082 139.933L24.1554 123.072L26.4982 123.832C31.1679 125.346 35.794 126.07 41.0258 126.106L46.2024 126.141L41.477 138.948C37.3645 150.095 36.7512 152.11 36.7463 154.485C36.7414 156.7 36.9423 157.482 37.81 158.629C39.7689 161.218 41.4512 161.604 50.8125 161.615L59.0936 161.624L54.9312 177.677C51.9091 189.333 50.8454 194.115 51.0481 195.134C51.8458 199.143 57.4999 201.178 60.8819 198.673C61.4209 198.274 65.5802 193.336 70.1243 187.701C76.8264 179.389 78.3867 177.202 78.3867 176.121C78.3867 173.132 74.3103 171.837 72.0765 174.117C71.4543 174.752 68.2838 178.578 65.031 182.62C61.7786 186.662 59.233 189.591 59.3742 189.129C60.3327 185.997 67.2514 158.488 67.2514 157.81C67.2514 157.346 66.7592 156.503 66.1579 155.936L65.0648 154.905H54.3544C48.4638 154.905 43.6391 154.764 43.6324 154.59C43.6257 154.417 47.1832 144.49 51.5385 132.529C59.4152 110.897 59.4624 110.785 60.5701 111.048C64.9334 112.084 68.5386 112.562 72.4823 112.627C74.9917 112.669 77.0464 112.767 77.0478 112.846C77.0491 112.924 74.9459 118.551 72.3736 125.35C69.8013 132.149 67.6968 138.252 67.6968 138.913C67.6968 139.574 68.0798 140.561 68.5475 141.106C69.3942 142.093 69.4526 142.098 81.3059 142.308L93.2136 142.518L94.0621 143.59C94.7204 144.422 94.8153 144.893 94.4844 145.69C94.2496 146.255 91.1349 150.307 87.5631 154.695C83.9913 159.084 80.9411 163.113 80.7848 163.65C80.1452 165.846 82.6377 168.216 85.0594 167.715C86.185 167.482 87.6192 165.95 93.2524 158.964C97.0085 154.307 100.385 149.929 100.755 149.236C102.545 145.891 102.017 141.786 99.4311 138.938C96.6469 135.871 95.5271 135.609 85.1917 135.598L76.1846 135.589L77.5498 131.914C78.3003 129.894 79.0463 128.118 79.2076 127.968C79.3684 127.819 81.4044 128.178 83.7317 128.767C87.4375 129.704 88.9034 129.842 95.5351 129.875C101.345 129.904 103.988 129.733 106.893 129.14C113.885 127.711 120.578 124.854 125.888 121.033L127.877 119.602L131.606 120.937L135.334 122.272L134.277 125.046C121.862 157.621 111.347 185.89 111.347 186.69C111.347 188.231 112.067 189.201 113.581 189.698C115.25 190.246 116.839 189.755 117.735 188.413C118.089 187.883 123.852 172.946 130.542 155.22L142.706 122.991L145.623 122.984C151.93 122.968 158.98 120.576 164.665 116.521C167.398 114.573 170.873 110.798 172.702 107.792C174.472 104.884 176.008 100.176 176.255 96.9051L176.497 93.7049L178.801 93.219C183.844 92.1549 190.104 88.6053 194.337 84.4086C195.763 82.9951 197.225 81.8387 197.585 81.8387C197.945 81.8387 199.773 81.5401 201.646 81.1756C212.192 79.1218 220.784 72.9888 225.398 64.2216C228.906 57.5562 228.998 48.1088 225.626 40.9201C223.939 37.3235 221.127 36.2531 218.895 38.3578ZM195.308 92.9297C194.573 93.2375 193.539 93.9388 193.012 94.488C192.442 95.0805 190.03 101.029 187.075 109.134C181.63 124.065 181.397 125.279 183.564 127.466C185.464 129.384 186.681 129.71 191.945 129.71C194.652 129.71 196.867 129.794 196.867 129.898C196.867 130.001 196.053 133.166 195.059 136.931C193.888 141.364 193.324 144.338 193.46 145.368C193.897 148.694 196.487 150.702 200.344 150.704C202.527 150.706 202.858 150.569 204.642 148.921C206.613 147.102 225.557 123.749 227.229 121.078C228.47 119.094 228.251 114.954 226.803 113.036C225.045 110.71 222.678 109.974 216.955 109.974C213.115 109.974 211.99 109.85 212.166 109.449C212.292 109.16 213.216 106.601 214.22 103.762C215.882 99.0597 216 98.4462 215.547 96.8627C214.959 94.8025 213.039 92.9717 211.08 92.6021C208.387 92.0945 196.723 92.3363 195.308 92.9297ZM205.968 105.588C203.19 113.086 203.011 114.554 204.722 115.822C205.804 116.625 206.481 116.692 213.438 116.692C220.404 116.692 220.97 116.749 220.839 117.434C220.692 118.198 201.722 141.986 201.458 141.737C201.377 141.66 202.201 138.158 203.29 133.954C205.391 125.841 205.424 124.358 203.531 123.402C203.082 123.176 199.775 122.991 196.18 122.991C191.139 122.991 189.692 122.871 189.85 122.466C189.963 122.178 191.934 116.792 194.229 110.498L198.404 99.0555H203.396H208.388L205.968 105.588ZM164.371 127.931C163.662 128.472 159.512 138.952 148.955 166.858C141.01 187.861 134.509 205.574 134.509 206.22C134.509 206.867 134.91 207.774 135.4 208.235C136.582 209.35 139.429 209.373 140.481 208.277C141.187 207.543 170.125 131.816 170.137 130.674C170.148 129.618 169.11 128.105 168.068 127.656C166.535 126.998 165.491 127.076 164.371 127.931ZM182.712 154.393C181.944 155.116 170.142 185.59 170.142 186.848C170.142 187.808 171.45 189.349 172.62 189.769C173.925 190.237 176.23 189.543 176.82 188.506C178.033 186.368 188.404 158.03 188.404 156.852C188.404 154.18 184.655 152.56 182.712 154.393ZM31.0864 167.398C30.1613 168.413 16.4635 204.812 16.4693 206.241C16.472 206.876 16.8751 207.774 17.365 208.235C18.5467 209.35 21.3947 209.373 22.4463 208.278C23.5024 207.178 37.0332 171.402 37.0438 169.682C37.0559 167.689 35.8929 166.663 33.6226 166.663C32.3973 166.663 31.5265 166.915 31.0864 167.398ZM84.0292 183.986C82.9375 184.739 75.1516 205.536 75.5267 206.698C76.0469 208.31 77.1057 209.075 78.8161 209.075C79.7109 209.075 80.7968 208.832 81.2289 208.534C82.0075 207.997 89.9674 187.835 89.9674 186.4C89.9674 186 89.5519 185.175 89.0441 184.567C88.3412 183.724 87.7243 183.46 86.4571 183.46C85.5418 183.46 84.4492 183.697 84.0292 183.986Z" fill="black"/>
<path fill-rule="evenodd" clip-rule="evenodd" d="M154.33 0.221613C142.61 2.46526 133.526 7.78023 127.948 15.6571C126.787 17.2978 125.833 18.6722 125.829 18.7108C125.825 18.7495 124.726 18.5135 123.387 18.1859C119.674 17.278 111.808 17.407 107.851 18.4408C103.983 19.4516 100.271 21.1552 97.3364 23.267L95.1997 24.8047L92.2497 24.0724C88.4668 23.1339 78.4326 22.7736 74.684 23.4421C68.5773 24.5305 62.934 26.7565 58.1186 29.9753C54.3927 32.4658 49.4321 37.5154 47.2483 41.0406C45.4653 43.9192 43.0485 50.2294 42.5376 53.3402L42.2873 54.8658L38.4006 55.1681C31.4512 55.7086 22.5194 58.2881 21.1323 60.1555C20.1493 61.4787 20.3342 63.26 21.5764 64.4308C22.991 65.7645 23.9772 65.7283 28.1801 64.1868C30.0865 63.4876 33.6694 62.6028 36.1423 62.2199C41.8338 61.3393 47.9017 61.8684 53.9246 63.7707C59.5751 65.5557 60.9283 65.4067 61.8565 62.8968C62.901 60.0716 60.5826 58.3314 53.4435 56.582C51.3612 56.0718 49.5894 55.6078 49.5061 55.5511C49.4223 55.494 49.7649 53.9172 50.2664 52.0464C51.6748 46.7961 53.9317 43.1487 58.3351 39.0065C62.6952 34.9047 65.6461 33.1356 71.1438 31.3274C74.394 30.2587 75.9231 30.0122 80.2926 29.8539C83.4404 29.7397 86.6482 29.8669 88.3101 30.1714C94.8505 31.369 101.768 34.9606 106.172 39.4454C108.973 42.2979 110.512 44.5945 112.484 48.8651C114.186 52.5491 115.016 52.9291 119.115 51.899C120.68 51.506 123.49 51.1843 125.36 51.1843C128.375 51.1843 128.882 51.068 129.852 50.1534C131.321 48.7685 131.299 46.8604 129.798 45.4448C128.673 44.3849 128.545 44.366 123.663 44.5424L118.676 44.7221L116.692 41.3396C114.505 37.6103 107.578 30.6534 104.553 29.148C103.635 28.6911 102.884 28.1746 102.884 27.9999C102.884 27.8257 103.845 27.2239 105.019 26.6629C110.699 23.9494 117.612 23.4518 123.544 25.3292C128.885 27.0194 129.948 26.7557 131.569 23.3413C135.14 15.8163 143.319 9.80762 153.175 7.46822C156.319 6.7216 157.856 6.6078 162.752 6.75813C167.823 6.91393 169.092 7.10541 172.485 8.22619C177.921 10.0218 180.928 11.8056 185.084 15.7008C191.748 21.9472 194.554 29.5238 192.629 36.0805C191.316 40.5586 191.312 40.9457 192.562 42.1253C194.06 43.5371 196.331 43.5875 197.676 42.2378C198.859 41.0499 200.43 35.4771 200.43 32.4646V30.2558L202.1 30.6883C203.019 30.926 205.051 31.6667 206.616 32.334C209.998 33.7764 211.055 33.8369 212.619 32.677C213.96 31.6827 214.204 29.6696 213.155 28.2578C212.262 27.056 206.985 24.8535 202.497 23.8087L198.714 22.9281L197.799 20.8533C195.418 15.4522 188.774 8.44874 183.044 5.29974C176.184 1.53009 169.497 -0.0710732 160.918 0.00241334C157.784 0.0292884 154.82 0.12797 154.33 0.221613ZM218.895 38.3578C217.45 39.7196 217.515 40.8563 219.235 44.3135C221.167 48.197 221.514 53.8071 220.095 58.2126C217.915 64.9784 211.664 70.9291 203.872 73.6569C202.703 74.0663 201.666 74.3258 201.569 74.2339C201.471 74.1419 201.775 72.5554 202.243 70.709C202.712 68.8622 203.097 66.2033 203.099 64.7999C203.102 62.6738 202.931 62.0964 202.072 61.3355C200.658 60.0837 198.467 60.1354 197.069 61.4535C196.21 62.2635 195.976 62.9186 195.976 64.5143C195.976 72.2783 189.756 81.1576 181.705 84.8877C179.858 85.7435 177.736 86.5586 176.991 86.6993C175.667 86.9487 175.612 86.8929 174.619 84.2919C173.175 80.5084 170.853 77.0612 167.725 74.0575C164.314 70.7825 160.708 68.5905 155.923 66.8835L152.17 65.5452L151.574 63.3507C150.346 58.8261 145.671 52.072 143.14 51.1646C141.85 50.7027 139.547 51.4157 138.954 52.4605C138.043 54.0654 138.465 55.6955 140.314 57.7095C142.032 59.5811 144.308 63.2722 144.308 64.1881C144.308 64.4266 143.633 64.6218 142.807 64.6218C137.797 64.6218 128.448 67.214 127.148 68.9634C126.158 70.2963 126.339 72.0751 127.585 73.2492C128.95 74.5371 129.855 74.5387 133.612 73.2609C143.862 69.7751 155.016 71.8764 162.292 78.6641C166.764 82.836 169.251 88.2438 169.251 93.7943C169.251 106.418 158.125 116.272 143.87 116.272C140.231 116.272 134.483 115.18 133.618 114.324C133.417 114.125 134.107 112.598 135.152 110.929C137.015 107.951 138.963 103.033 138.963 101.305C138.963 100.823 138.547 99.9306 138.04 99.3222C137.325 98.4655 136.725 98.2157 135.384 98.2157C133.324 98.2157 132.056 99.2886 131.639 101.384C131.484 102.163 130.529 104.361 129.517 106.267C127.368 110.315 122.131 115.569 117.93 117.891C108.139 123.304 95.3084 124.818 84.1071 121.883L81.5874 121.223L83.4274 116.285L85.267 111.348L87.7101 110.639C90.5033 109.828 94.2773 108.119 95.4238 107.146C96.5885 106.157 96.4291 103.849 95.1097 102.606C93.6844 101.262 92.4595 101.306 89.0151 102.825C83.9757 105.048 79.7225 105.883 73.4871 105.873C69.2535 105.866 67.0718 105.652 64.382 104.976C59.9889 103.873 54.9464 101.556 52.4467 99.4931C49.0776 96.7115 47.6785 96.3655 45.7089 97.8264C44.8047 98.4966 44.5353 99.0673 44.5353 100.31C44.5353 101.65 44.8408 102.198 46.3338 103.534C47.3231 104.42 49.2019 105.809 50.5087 106.621L52.8845 108.097L50.8824 113.45C48.5226 119.758 49.0428 119.441 41.1947 119.352C37.3503 119.308 34.8493 119.042 32.2864 118.405C17.2274 114.66 7.12051 103.575 7.12051 90.8011C7.12051 84.4901 8.77656 79.8634 12.873 74.729C15.8275 71.0265 15.056 67.9812 11.164 67.9812C9.6322 67.9812 9.19258 68.2269 7.59666 69.9759C5.10146 72.71 1.92387 78.638 0.869135 82.5257C-0.195403 86.4503 -0.298294 93.6969 0.650437 97.9188C2.37864 105.608 8.60196 114.035 16.0675 118.794L17.7174 119.846L10.1921 139.75C6.05286 150.697 2.66638 160.272 2.66638 161.029C2.66638 163.367 5.69118 164.894 8.00733 163.726C8.98947 163.23 9.55425 161.858 17.8082 139.933L24.1554 123.072L26.4982 123.832C31.1679 125.346 35.794 126.07 41.0258 126.106L46.2024 126.141L41.477 138.948C37.3645 150.095 36.7512 152.11 36.7463 154.485C36.7414 156.7 36.9423 157.482 37.81 158.629C39.7689 161.218 41.4512 161.604 50.8125 161.615L59.0936 161.624L54.9312 177.677C51.9091 189.333 50.8454 194.115 51.0481 195.134C51.8458 199.143 57.4999 201.178 60.8819 198.673C61.4209 198.274 65.5802 193.336 70.1243 187.701C76.8264 179.389 78.3867 177.202 78.3867 176.121C78.3867 173.132 74.3103 171.837 72.0765 174.117C71.4543 174.752 68.2838 178.578 65.031 182.62C61.7786 186.662 59.233 189.591 59.3742 189.129C60.3327 185.997 67.2514 158.488 67.2514 157.81C67.2514 157.346 66.7592 156.503 66.1579 155.936L65.0648 154.905H54.3544C48.4638 154.905 43.6391 154.764 43.6324 154.59C43.6257 154.417 47.1832 144.49 51.5385 132.529C59.4152 110.897 59.4624 110.785 60.5701 111.048C64.9334 112.084 68.5386 112.562 72.4823 112.627C74.9917 112.669 77.0464 112.767 77.0478 112.846C77.0491 112.924 74.9459 118.551 72.3736 125.35C69.8013 132.149 67.6968 138.252 67.6968 138.913C67.6968 139.574 68.0798 140.561 68.5475 141.106C69.3942 142.093 69.4526 142.098 81.3059 142.308L93.2136 142.518L94.0621 143.59C94.7204 144.422 94.8153 144.893 94.4844 145.69C94.2496 146.255 91.1349 150.307 87.5631 154.695C83.9913 159.084 80.9411 163.113 80.7848 163.65C80.1452 165.846 82.6377 168.216 85.0594 167.715C86.185 167.482 87.6192 165.95 93.2524 158.964C97.0085 154.307 100.385 149.929 100.755 149.236C102.545 145.891 102.017 141.786 99.4311 138.938C96.6469 135.871 95.5271 135.609 85.1917 135.598L76.1846 135.589L77.5498 131.914C78.3003 129.894 79.0463 128.118 79.2076 127.968C79.3684 127.819 81.4044 128.178 83.7317 128.767C87.4375 129.704 88.9034 129.842 95.5351 129.875C101.345 129.904 103.988 129.733 106.893 129.14C113.885 127.711 120.578 124.854 125.888 121.033L127.877 119.602L131.606 120.937L135.334 122.272L134.277 125.046C121.862 157.621 111.347 185.89 111.347 186.69C111.347 188.231 112.067 189.201 113.581 189.698C115.25 190.246 116.839 189.755 117.735 188.413C118.089 187.883 123.852 172.946 130.542 155.22L142.706 122.991L145.623 122.984C151.93 122.968 158.98 120.576 164.665 116.521C167.398 114.573 170.873 110.798 172.702 107.792C174.472 104.884 176.008 100.176 176.255 96.9051L176.497 93.7049L178.801 93.219C183.844 92.1549 190.104 88.6053 194.337 84.4086C195.763 82.9951 197.225 81.8387 197.585 81.8387C197.945 81.8387 199.773 81.5401 201.646 81.1756C212.192 79.1218 220.784 72.9888 225.398 64.2216C228.906 57.5562 228.998 48.1088 225.626 40.9201C223.939 37.3235 221.127 36.2531 218.895 38.3578ZM195.308 92.9297C194.573 93.2375 193.539 93.9388 193.012 94.488C192.442 95.0805 190.03 101.029 187.075 109.134C181.63 124.065 181.397 125.279 183.564 127.466C185.464 129.384 186.681 129.71 191.945 129.71C194.652 129.71 196.867 129.794 196.867 129.898C196.867 130.001 196.053 133.166 195.059 136.931C193.888 141.364 193.324 144.338 193.46 145.368C193.897 148.694 196.487 150.702 200.344 150.704C202.527 150.706 202.858 150.569 204.642 148.921C206.613 147.102 225.557 123.749 227.229 121.078C228.47 119.094 228.251 114.954 226.803 113.036C225.045 110.71 222.678 109.974 216.955 109.974C213.115 109.974 211.99 109.85 212.166 109.449C212.292 109.16 213.216 106.601 214.22 103.762C215.882 99.0597 216 98.4462 215.547 96.8627C214.959 94.8025 213.039 92.9717 211.08 92.6021C208.387 92.0945 196.723 92.3363 195.308 92.9297ZM205.968 105.588C203.19 113.086 203.011 114.554 204.722 115.822C205.804 116.625 206.481 116.692 213.438 116.692C220.404 116.692 220.97 116.749 220.839 117.434C220.692 118.198 201.722 141.986 201.458 141.737C201.377 141.66 202.201 138.158 203.29 133.954C205.391 125.841 205.424 124.358 203.531 123.402C203.082 123.176 199.775 122.991 196.18 122.991C191.139 122.991 189.692 122.871 189.85 122.466C189.963 122.178 191.934 116.792 194.229 110.498L198.404 99.0555H203.396H208.388L205.968 105.588ZM164.371 127.931C163.662 128.472 159.512 138.952 148.955 166.858C141.01 187.861 134.509 205.574 134.509 206.22C134.509 206.867 134.91 207.774 135.4 208.235C136.582 209.35 139.429 209.373 140.481 208.277C141.187 207.543 170.125 131.816 170.137 130.674C170.148 129.618 169.11 128.105 168.068 127.656C166.535 126.998 165.491 127.076 164.371 127.931ZM182.712 154.393C181.944 155.116 170.142 185.59 170.142 186.848C170.142 187.808 171.45 189.349 172.62 189.769C173.925 190.237 176.23 189.543 176.82 188.506C178.033 186.368 188.404 158.03 188.404 156.852C188.404 154.18 184.655 152.56 182.712 154.393ZM31.0864 167.398C30.1613 168.413 16.4635 204.812 16.4693 206.241C16.472 206.876 16.8751 207.774 17.365 208.235C18.5467 209.35 21.3947 209.373 22.4463 208.278C23.5024 207.178 37.0332 171.402 37.0438 169.682C37.0559 167.689 35.8929 166.663 33.6226 166.663C32.3973 166.663 31.5265 166.915 31.0864 167.398ZM84.0292 183.986C82.9375 184.739 75.1516 205.536 75.5267 206.698C76.0469 208.31 77.1057 209.075 78.8161 209.075C79.7109 209.075 80.7968 208.832 81.2289 208.534C82.0075 207.997 89.9674 187.835 89.9674 186.4C89.9674 186 89.5519 185.175 89.0441 184.567C88.3412 183.724 87.7243 183.46 86.4571 183.46C85.5418 183.46 84.4492 183.697 84.0292 183.986Z" fill="black"/>
<path fill-rule="evenodd" clip-rule="evenodd" d="M154.33 0.221613C142.61 2.46526 133.526 7.78023 127.948 15.6571C126.787 17.2978 125.833 18.6722 125.829 18.7108C125.825 18.7495 124.726 18.5135 123.387 18.1859C119.674 17.278 111.808 17.407 107.851 18.4408C103.983 19.4516 100.271 21.1552 97.3364 23.267L95.1997 24.8047L92.2497 24.0724C88.4668 23.1339 78.4326 22.7736 74.684 23.4421C68.5773 24.5305 62.934 26.7565 58.1186 29.9753C54.3927 32.4658 49.4321 37.5154 47.2483 41.0406C45.4653 43.9192 43.0485 50.2294 42.5376 53.3402L42.2873 54.8658L38.4006 55.1681C31.4512 55.7086 22.5194 58.2881 21.1323 60.1555C20.1493 61.4787 20.3342 63.26 21.5764 64.4308C22.991 65.7645 23.9772 65.7283 28.1801 64.1868C30.0865 63.4876 33.6694 62.6028 36.1423 62.2199C41.8338 61.3393 47.9017 61.8684 53.9246 63.7707C59.5751 65.5557 60.9283 65.4067 61.8565 62.8968C62.901 60.0716 60.5826 58.3314 53.4435 56.582C51.3612 56.0718 49.5894 55.6078 49.5061 55.5511C49.4223 55.494 49.7649 53.9172 50.2664 52.0464C51.6748 46.7961 53.9317 43.1487 58.3351 39.0065C62.6952 34.9047 65.6461 33.1356 71.1438 31.3274C74.394 30.2587 75.9231 30.0122 80.2926 29.8539C83.4404 29.7397 86.6482 29.8669 88.3101 30.1714C94.8505 31.369 101.768 34.9606 106.172 39.4454C108.973 42.2979 110.512 44.5945 112.484 48.8651C114.186 52.5491 115.016 52.9291 119.115 51.899C120.68 51.506 123.49 51.1843 125.36 51.1843C128.375 51.1843 128.882 51.068 129.852 50.1534C131.321 48.7685 131.299 46.8604 129.798 45.4448C128.673 44.3849 128.545 44.366 123.663 44.5424L118.676 44.7221L116.692 41.3396C114.505 37.6103 107.578 30.6534 104.553 29.148C103.635 28.6911 102.884 28.1746 102.884 27.9999C102.884 27.8257 103.845 27.2239 105.019 26.6629C110.699 23.9494 117.612 23.4518 123.544 25.3292C128.885 27.0194 129.948 26.7557 131.569 23.3413C135.14 15.8163 143.319 9.80762 153.175 7.46822C156.319 6.7216 157.856 6.6078 162.752 6.75813C167.823 6.91393 169.092 7.10541 172.485 8.22619C177.921 10.0218 180.928 11.8056 185.084 15.7008C191.748 21.9472 194.554 29.5238 192.629 36.0805C191.316 40.5586 191.312 40.9457 192.562 42.1253C194.06 43.5371 196.331 43.5875 197.676 42.2378C198.859 41.0499 200.43 35.4771 200.43 32.4646V30.2558L202.1 30.6883C203.019 30.926 205.051 31.6667 206.616 32.334C209.998 33.7764 211.055 33.8369 212.619 32.677C213.96 31.6827 214.204 29.6696 213.155 28.2578C212.262 27.056 206.985 24.8535 202.497 23.8087L198.714 22.9281L197.799 20.8533C195.418 15.4522 188.774 8.44874 183.044 5.29974C176.184 1.53009 169.497 -0.0710732 160.918 0.00241334C157.784 0.0292884 154.82 0.12797 154.33 0.221613ZM218.895 38.3578C217.45 39.7196 217.515 40.8563 219.235 44.3135C221.167 48.197 221.514 53.8071 220.095 58.2126C217.915 64.9784 211.664 70.9291 203.872 73.6569C202.703 74.0663 201.666 74.3258 201.569 74.2339C201.471 74.1419 201.775 72.5554 202.243 70.709C202.712 68.8622 203.097 66.2033 203.099 64.7999C203.102 62.6738 202.931 62.0964 202.072 61.3355C200.658 60.0837 198.467 60.1354 197.069 61.4535C196.21 62.2635 195.976 62.9186 195.976 64.5143C195.976 72.2783 189.756 81.1576 181.705 84.8877C179.858 85.7435 177.736 86.5586 176.991 86.6993C175.667 86.9487 175.612 86.8929 174.619 84.2919C173.175 80.5084 170.853 77.0612 167.725 74.0575C164.314 70.7825 160.708 68.5905 155.923 66.8835L152.17 65.5452L151.574 63.3507C150.346 58.8261 145.671 52.072 143.14 51.1646C141.85 50.7027 139.547 51.4157 138.954 52.4605C138.043 54.0654 138.465 55.6955 140.314 57.7095C142.032 59.5811 144.308 63.2722 144.308 64.1881C144.308 64.4266 143.633 64.6218 142.807 64.6218C137.797 64.6218 128.448 67.214 127.148 68.9634C126.158 70.2963 126.339 72.0751 127.585 73.2492C128.95 74.5371 129.855 74.5387 133.612 73.2609C143.862 69.7751 155.016 71.8764 162.292 78.6641C166.764 82.836 169.251 88.2438 169.251 93.7943C169.251 106.418 158.125 116.272 143.87 116.272C140.231 116.272 134.483 115.18 133.618 114.324C133.417 114.125 134.107 112.598 135.152 110.929C137.015 107.951 138.963 103.033 138.963 101.305C138.963 100.823 138.547 99.9306 138.04 99.3222C137.325 98.4655 136.725 98.2157 135.384 98.2157C133.324 98.2157 132.056 99.2886 131.639 101.384C131.484 102.163 130.529 104.361 129.517 106.267C127.368 110.315 122.131 115.569 117.93 117.891C108.139 123.304 95.3084 124.818 84.1071 121.883L81.5874 121.223L83.4274 116.285L85.267 111.348L87.7101 110.639C90.5033 109.828 94.2773 108.119 95.4238 107.146C96.5885 106.157 96.4291 103.849 95.1097 102.606C93.6844 101.262 92.4595 101.306 89.0151 102.825C83.9757 105.048 79.7225 105.883 73.4871 105.873C69.2535 105.866 67.0718 105.652 64.382 104.976C59.9889 103.873 54.9464 101.556 52.4467 99.4931C49.0776 96.7115 47.6785 96.3655 45.7089 97.8264C44.8047 98.4966 44.5353 99.0673 44.5353 100.31C44.5353 101.65 44.8408 102.198 46.3338 103.534C47.3231 104.42 49.2019 105.809 50.5087 106.621L52.8845 108.097L50.8824 113.45C48.5226 119.758 49.0428 119.441 41.1947 119.352C37.3503 119.308 34.8493 119.042 32.2864 118.405C17.2274 114.66 7.12051 103.575 7.12051 90.8011C7.12051 84.4901 8.77656 79.8634 12.873 74.729C15.8275 71.0265 15.056 67.9812 11.164 67.9812C9.6322 67.9812 9.19258 68.2269 7.59666 69.9759C5.10146 72.71 1.92387 78.638 0.869135 82.5257C-0.195403 86.4503 -0.298294 93.6969 0.650437 97.9188C2.37864 105.608 8.60196 114.035 16.0675 118.794L17.7174 119.846L10.1921 139.75C6.05286 150.697 2.66638 160.272 2.66638 161.029C2.66638 163.367 5.69118 164.894 8.00733 163.726C8.98947 163.23 9.55425 161.858 17.8082 139.933L24.1554 123.072L26.4982 123.832C31.1679 125.346 35.794 126.07 41.0258 126.106L46.2024 126.141L41.477 138.948C37.3645 150.095 36.7512 152.11 36.7463 154.485C36.7414 156.7 36.9423 157.482 37.81 158.629C39.7689 161.218 41.4512 161.604 50.8125 161.615L59.0936 161.624L54.9312 177.677C51.9091 189.333 50.8454 194.115 51.0481 195.134C51.8458 199.143 57.4999 201.178 60.8819 198.673C61.4209 198.274 65.5802 193.336 70.1243 187.701C76.8264 179.389 78.3867 177.202 78.3867 176.121C78.3867 173.132 74.3103 171.837 72.0765 174.117C71.4543 174.752 68.2838 178.578 65.031 182.62C61.7786 186.662 59.233 189.591 59.3742 189.129C60.3327 185.997 67.2514 158.488 67.2514 157.81C67.2514 157.346 66.7592 156.503 66.1579 155.936L65.0648 154.905H54.3544C48.4638 154.905 43.6391 154.764 43.6324 154.59C43.6257 154.417 47.1832 144.49 51.5385 132.529C59.4152 110.897 59.4624 110.785 60.5701 111.048C64.9334 112.084 68.5386 112.562 72.4823 112.627C74.9917 112.669 77.0464 112.767 77.0478 112.846C77.0491 112.924 74.9459 118.551 72.3736 125.35C69.8013 132.149 67.6968 138.252 67.6968 138.913C67.6968 139.574 68.0798 140.561 68.5475 141.106C69.3942 142.093 69.4526 142.098 81.3059 142.308L93.2136 142.518L94.0621 143.59C94.7204 144.422 94.8153 144.893 94.4844 145.69C94.2496 146.255 91.1349 150.307 87.5631 154.695C83.9913 159.084 80.9411 163.113 80.7848 163.65C80.1452 165.846 82.6377 168.216 85.0594 167.715C86.185 167.482 87.6192 165.95 93.2524 158.964C97.0085 154.307 100.385 149.929 100.755 149.236C102.545 145.891 102.017 141.786 99.4311 138.938C96.6469 135.871 95.5271 135.609 85.1917 135.598L76.1846 135.589L77.5498 131.914C78.3003 129.894 79.0463 128.118 79.2076 127.968C79.3684 127.819 81.4044 128.178 83.7317 128.767C87.4375 129.704 88.9034 129.842 95.5351 129.875C101.345 129.904 103.988 129.733 106.893 129.14C113.885 127.711 120.578 124.854 125.888 121.033L127.877 119.602L131.606 120.937L135.334 122.272L134.277 125.046C121.862 157.621 111.347 185.89 111.347 186.69C111.347 188.231 112.067 189.201 113.581 189.698C115.25 190.246 116.839 189.755 117.735 188.413C118.089 187.883 123.852 172.946 130.542 155.22L142.706 122.991L145.623 122.984C151.93 122.968 158.98 120.576 164.665 116.521C167.398 114.573 170.873 110.798 172.702 107.792C174.472 104.884 176.008 100.176 176.255 96.9051L176.497 93.7049L178.801 93.219C183.844 92.1549 190.104 88.6053 194.337 84.4086C195.763 82.9951 197.225 81.8387 197.585 81.8387C197.945 81.8387 199.773 81.5401 201.646 81.1756C212.192 79.1218 220.784 72.9888 225.398 64.2216C228.906 57.5562 228.998 48.1088 225.626 40.9201C223.939 37.3235 221.127 36.2531 218.895 38.3578ZM195.308 92.9297C194.573 93.2375 193.539 93.9388 193.012 94.488C192.442 95.0805 190.03 101.029 187.075 109.134C181.63 124.065 181.397 125.279 183.564 127.466C185.464 129.384 186.681 129.71 191.945 129.71C194.652 129.71 196.867 129.794 196.867 129.898C196.867 130.001 196.053 133.166 195.059 136.931C193.888 141.364 193.324 144.338 193.46 145.368C193.897 148.694 196.487 150.702 200.344 150.704C202.527 150.706 202.858 150.569 204.642 148.921C206.613 147.102 225.557 123.749 227.229 121.078C228.47 119.094 228.251 114.954 226.803 113.036C225.045 110.71 222.678 109.974 216.955 109.974C213.115 109.974 211.99 109.85 212.166 109.449C212.292 109.16 213.216 106.601 214.22 103.762C215.882 99.0597 216 98.4462 215.547 96.8627C214.959 94.8025 213.039 92.9717 211.08 92.6021C208.387 92.0945 196.723 92.3363 195.308 92.9297ZM205.968 105.588C203.19 113.086 203.011 114.554 204.722 115.822C205.804 116.625 206.481 116.692 213.438 116.692C220.404 116.692 220.97 116.749 220.839 117.434C220.692 118.198 201.722 141.986 201.458 141.737C201.377 141.66 202.201 138.158 203.29 133.954C205.391 125.841 205.424 124.358 203.531 123.402C203.082 123.176 199.775 122.991 196.18 122.991C191.139 122.991 189.692 122.871 189.85 122.466C189.963 122.178 191.934 116.792 194.229 110.498L198.404 99.0555H203.396H208.388L205.968 105.588ZM164.371 127.931C163.662 128.472 159.512 138.952 148.955 166.858C141.01 187.861 134.509 205.574 134.509 206.22C134.509 206.867 134.91 207.774 135.4 208.235C136.582 209.35 139.429 209.373 140.481 208.277C141.187 207.543 170.125 131.816 170.137 130.674C170.148 129.618 169.11 128.105 168.068 127.656C166.535 126.998 165.491 127.076 164.371 127.931ZM182.712 154.393C181.944 155.116 170.142 185.59 170.142 186.848C170.142 187.808 171.45 189.349 172.62 189.769C173.925 190.237 176.23 189.543 176.82 188.506C178.033 186.368 188.404 158.03 188.404 156.852C188.404 154.18 184.655 152.56 182.712 154.393ZM31.0864 167.398C30.1613 168.413 16.4635 204.812 16.4693 206.241C16.472 206.876 16.8751 207.774 17.365 208.235C18.5467 209.35 21.3947 209.373 22.4463 208.278C23.5024 207.178 37.0332 171.402 37.0438 169.682C37.0559 167.689 35.8929 166.663 33.6226 166.663C32.3973 166.663 31.5265 166.915 31.0864 167.398ZM84.0292 183.986C82.9375 184.739 75.1516 205.536 75.5267 206.698C76.0469 208.31 77.1057 209.075 78.8161 209.075C79.7109 209.075 80.7968 208.832 81.2289 208.534C82.0075 207.997 89.9674 187.835 89.9674 186.4C89.9674 186 89.5519 185.175 89.0441 184.567C88.3412 183.724 87.7243 183.46 86.4571 183.46C85.5418 183.46 84.4492 183.697 84.0292 183.986Z" fill="black"/>
<path fill-rule="evenodd" clip-rule="evenodd" d="M154.33 0.221613C142.61 2.46526 133.526 7.78023 127.948 15.6571C126.787 17.2978 125.833 18.6722 125.829 18.7108C125.825 18.7495 124.726 18.5135 123.387 18.1859C119.674 17.278 111.808 17.407 107.851 18.4408C103.983 19.4516 100.271 21.1552 97.3364 23.267L95.1997 24.8047L92.2497 24.0724C88.4668 23.1339 78.4326 22.7736 74.684 23.4421C68.5773 24.5305 62.934 26.7565 58.1186 29.9753C54.3927 32.4658 49.4321 37.5154 47.2483 41.0406C45.4653 43.9192 43.0485 50.2294 42.5376 53.3402L42.2873 54.8658L38.4006 55.1681C31.4512 55.7086 22.5194 58.2881 21.1323 60.1555C20.1493 61.4787 20.3342 63.26 21.5764 64.4308C22.991 65.7645 23.9772 65.7283 28.1801 64.1868C30.0865 63.4876 33.6694 62.6028 36.1423 62.2199C41.8338 61.3393 47.9017 61.8684 53.9246 63.7707C59.5751 65.5557 60.9283 65.4067 61.8565 62.8968C62.901 60.0716 60.5826 58.3314 53.4435 56.582C51.3612 56.0718 49.5894 55.6078 49.5061 55.5511C49.4223 55.494 49.7649 53.9172 50.2664 52.0464C51.6748 46.7961 53.9317 43.1487 58.3351 39.0065C62.6952 34.9047 65.6461 33.1356 71.1438 31.3274C74.394 30.2587 75.9231 30.0122 80.2926 29.8539C83.4404 29.7397 86.6482 29.8669 88.3101 30.1714C94.8505 31.369 101.768 34.9606 106.172 39.4454C108.973 42.2979 110.512 44.5945 112.484 48.8651C114.186 52.5491 115.016 52.9291 119.115 51.899C120.68 51.506 123.49 51.1843 125.36 51.1843C128.375 51.1843 128.882 51.068 129.852 50.1534C131.321 48.7685 131.299 46.8604 129.798 45.4448C128.673 44.3849 128.545 44.366 123.663 44.5424L118.676 44.7221L116.692 41.3396C114.505 37.6103 107.578 30.6534 104.553 29.148C103.635 28.6911 102.884 28.1746 102.884 27.9999C102.884 27.8257 103.845 27.2239 105.019 26.6629C110.699 23.9494 117.612 23.4518 123.544 25.3292C128.885 27.0194 129.948 26.7557 131.569 23.3413C135.14 15.8163 143.319 9.80762 153.175 7.46822C156.319 6.7216 157.856 6.6078 162.752 6.75813C167.823 6.91393 169.092 7.10541 172.485 8.22619C177.921 10.0218 180.928 11.8056 185.084 15.7008C191.748 21.9472 194.554 29.5238 192.629 36.0805C191.316 40.5586 191.312 40.9457 192.562 42.1253C194.06 43.5371 196.331 43.5875 197.676 42.2378C198.859 41.0499 200.43 35.4771 200.43 32.4646V30.2558L202.1 30.6883C203.019 30.926 205.051 31.6667 206.616 32.334C209.998 33.7764 211.055 33.8369 212.619 32.677C213.96 31.6827 214.204 29.6696 213.155 28.2578C212.262 27.056 206.985 24.8535 202.497 23.8087L198.714 22.9281L197.799 20.8533C195.418 15.4522 188.774 8.44874 183.044 5.29974C176.184 1.53009 169.497 -0.0710732 160.918 0.00241334C157.784 0.0292884 154.82 0.12797 154.33 0.221613ZM218.895 38.3578C217.45 39.7196 217.515 40.8563 219.235 44.3135C221.167 48.197 221.514 53.8071 220.095 58.2126C217.915 64.9784 211.664 70.9291 203.872 73.6569C202.703 74.0663 201.666 74.3258 201.569 74.2339C201.471 74.1419 201.775 72.5554 202.243 70.709C202.712 68.8622 203.097 66.2033 203.099 64.7999C203.102 62.6738 202.931 62.0964 202.072 61.3355C200.658 60.0837 198.467 60.1354 197.069 61.4535C196.21 62.2635 195.976 62.9186 195.976 64.5143C195.976 72.2783 189.756 81.1576 181.705 84.8877C179.858 85.7435 177.736 86.5586 176.991 86.6993C175.667 86.9487 175.612 86.8929 174.619 84.2919C173.175 80.5084 170.853 77.0612 167.725 74.0575C164.314 70.7825 160.708 68.5905 155.923 66.8835L152.17 65.5452L151.574 63.3507C150.346 58.8261 145.671 52.072 143.14 51.1646C141.85 50.7027 139.547 51.4157 138.954 52.4605C138.043 54.0654 138.465 55.6955 140.314 57.7095C142.032 59.5811 144.308 63.2722 144.308 64.1881C144.308 64.4266 143.633 64.6218 142.807 64.6218C137.797 64.6218 128.448 67.214 127.148 68.9634C126.158 70.2963 126.339 72.0751 127.585 73.2492C128.95 74.5371 129.855 74.5387 133.612 73.2609C143.862 69.7751 155.016 71.8764 162.292 78.6641C166.764 82.836 169.251 88.2438 169.251 93.7943C169.251 106.418 158.125 116.272 143.87 116.272C140.231 116.272 134.483 115.18 133.618 114.324C133.417 114.125 134.107 112.598 135.152 110.929C137.015 107.951 138.963 103.033 138.963 101.305C138.963 100.823 138.547 99.9306 138.04 99.3222C137.325 98.4655 136.725 98.2157 135.384 98.2157C133.324 98.2157 132.056 99.2886 131.639 101.384C131.484 102.163 130.529 104.361 129.517 106.267C127.368 110.315 122.131 115.569 117.93 117.891C108.139 123.304 95.3084 124.818 84.1071 121.883L81.5874 121.223L83.4274 116.285L85.267 111.348L87.7101 110.639C90.5033 109.828 94.2773 108.119 95.4238 107.146C96.5885 106.157 96.4291 103.849 95.1097 102.606C93.6844 101.262 92.4595 101.306 89.0151 102.825C83.9757 105.048 79.7225 105.883 73.4871 105.873C69.2535 105.866 67.0718 105.652 64.382 104.976C59.9889 103.873 54.9464 101.556 52.4467 99.4931C49.0776 96.7115 47.6785 96.3655 45.7089 97.8264C44.8047 98.4966 44.5353 99.0673 44.5353 100.31C44.5353 101.65 44.8408 102.198 46.3338 103.534C47.3231 104.42 49.2019 105.809 50.5087 106.621L52.8845 108.097L50.8824 113.45C48.5226 119.758 49.0428 119.441 41.1947 119.352C37.3503 119.308 34.8493 119.042 32.2864 118.405C17.2274 114.66 7.12051 103.575 7.12051 90.8011C7.12051 84.4901 8.77656 79.8634 12.873 74.729C15.8275 71.0265 15.056 67.9812 11.164 67.9812C9.6322 67.9812 9.19258 68.2269 7.59666 69.9759C5.10146 72.71 1.92387 78.638 0.869135 82.5257C-0.195403 86.4503 -0.298294 93.6969 0.650437 97.9188C2.37864 105.608 8.60196 114.035 16.0675 118.794L17.7174 119.846L10.1921 139.75C6.05286 150.697 2.66638 160.272 2.66638 161.029C2.66638 163.367 5.69118 164.894 8.00733 163.726C8.98947 163.23 9.55425 161.858 17.8082 139.933L24.1554 123.072L26.4982 123.832C31.1679 125.346 35.794 126.07 41.0258 126.106L46.2024 126.141L41.477 138.948C37.3645 150.095 36.7512 152.11 36.7463 154.485C36.7414 156.7 36.9423 157.482 37.81 158.629C39.7689 161.218 41.4512 161.604 50.8125 161.615L59.0936 161.624L54.9312 177.677C51.9091 189.333 50.8454 194.115 51.0481 195.134C51.8458 199.143 57.4999 201.178 60.8819 198.673C61.4209 198.274 65.5802 193.336 70.1243 187.701C76.8264 179.389 78.3867 177.202 78.3867 176.121C78.3867 173.132 74.3103 171.837 72.0765 174.117C71.4543 174.752 68.2838 178.578 65.031 182.62C61.7786 186.662 59.233 189.591 59.3742 189.129C60.3327 185.997 67.2514 158.488 67.2514 157.81C67.2514 157.346 66.7592 156.503 66.1579 155.936L65.0648 154.905H54.3544C48.4638 154.905 43.6391 154.764 43.6324 154.59C43.6257 154.417 47.1832 144.49 51.5385 132.529C59.4152 110.897 59.4624 110.785 60.5701 111.048C64.9334 112.084 68.5386 112.562 72.4823 112.627C74.9917 112.669 77.0464 112.767 77.0478 112.846C77.0491 112.924 74.9459 118.551 72.3736 125.35C69.8013 132.149 67.6968 138.252 67.6968 138.913C67.6968 139.574 68.0798 140.561 68.5475 141.106C69.3942 142.093 69.4526 142.098 81.3059 142.308L93.2136 142.518L94.0621 143.59C94.7204 144.422 94.8153 144.893 94.4844 145.69C94.2496 146.255 91.1349 150.307 87.5631 154.695C83.9913 159.084 80.9411 163.113 80.7848 163.65C80.1452 165.846 82.6377 168.216 85.0594 167.715C86.185 167.482 87.6192 165.95 93.2524 158.964C97.0085 154.307 100.385 149.929 100.755 149.236C102.545 145.891 102.017 141.786 99.4311 138.938C96.6469 135.871 95.5271 135.609 85.1917 135.598L76.1846 135.589L77.5498 131.914C78.3003 129.894 79.0463 128.118 79.2076 127.968C79.3684 127.819 81.4044 128.178 83.7317 128.767C87.4375 129.704 88.9034 129.842 95.5351 129.875C101.345 129.904 103.988 129.733 106.893 129.14C113.885 127.711 120.578 124.854 125.888 121.033L127.877 119.602L131.606 120.937L135.334 122.272L134.277 125.046C121.862 157.621 111.347 185.89 111.347 186.69C111.347 188.231 112.067 189.201 113.581 189.698C115.25 190.246 116.839 189.755 117.735 188.413C118.089 187.883 123.852 172.946 130.542 155.22L142.706 122.991L145.623 122.984C151.93 122.968 158.98 120.576 164.665 116.521C167.398 114.573 170.873 110.798 172.702 107.792C174.472 104.884 176.008 100.176 176.255 96.9051L176.497 93.7049L178.801 93.219C183.844 92.1549 190.104 88.6053 194.337 84.4086C195.763 82.9951 197.225 81.8387 197.585 81.8387C197.945 81.8387 199.773 81.5401 201.646 81.1756C212.192 79.1218 220.784 72.9888 225.398 64.2216C228.906 57.5562 228.998 48.1088 225.626 40.9201C223.939 37.3235 221.127 36.2531 218.895 38.3578ZM195.308 92.9297C194.573 93.2375 193.539 93.9388 193.012 94.488C192.442 95.0805 190.03 101.029 187.075 109.134C181.63 124.065 181.397 125.279 183.564 127.466C185.464 129.384 186.681 129.71 191.945 129.71C194.652 129.71 196.867 129.794 196.867 129.898C196.867 130.001 196.053 133.166 195.059 136.931C193.888 141.364 193.324 144.338 193.46 145.368C193.897 148.694 196.487 150.702 200.344 150.704C202.527 150.706 202.858 150.569 204.642 148.921C206.613 147.102 225.557 123.749 227.229 121.078C228.47 119.094 228.251 114.954 226.803 113.036C225.045 110.71 222.678 109.974 216.955 109.974C213.115 109.974 211.99 109.85 212.166 109.449C212.292 109.16 213.216 106.601 214.22 103.762C215.882 99.0597 216 98.4462 215.547 96.8627C214.959 94.8025 213.039 92.9717 211.08 92.6021C208.387 92.0945 196.723 92.3363 195.308 92.9297ZM205.968 105.588C203.19 113.086 203.011 114.554 204.722 115.822C205.804 116.625 206.481 116.692 213.438 116.692C220.404 116.692 220.97 116.749 220.839 117.434C220.692 118.198 201.722 141.986 201.458 141.737C201.377 141.66 202.201 138.158 203.29 133.954C205.391 125.841 205.424 124.358 203.531 123.402C203.082 123.176 199.775 122.991 196.18 122.991C191.139 122.991 189.692 122.871 189.85 122.466C189.963 122.178 191.934 116.792 194.229 110.498L198.404 99.0555H203.396H208.388L205.968 105.588ZM164.371 127.931C163.662 128.472 159.512 138.952 148.955 166.858C141.01 187.861 134.509 205.574 134.509 206.22C134.509 206.867 134.91 207.774 135.4 208.235C136.582 209.35 139.429 209.373 140.481 208.277C141.187 207.543 170.125 131.816 170.137 130.674C170.148 129.618 169.11 128.105 168.068 127.656C166.535 126.998 165.491 127.076 164.371 127.931ZM182.712 154.393C181.944 155.116 170.142 185.59 170.142 186.848C170.142 187.808 171.45 189.349 172.62 189.769C173.925 190.237 176.23 189.543 176.82 188.506C178.033 186.368 188.404 158.03 188.404 156.852C188.404 154.18 184.655 152.56 182.712 154.393ZM31.0864 167.398C30.1613 168.413 16.4635 204.812 16.4693 206.241C16.472 206.876 16.8751 207.774 17.365 208.235C18.5467 209.35 21.3947 209.373 22.4463 208.278C23.5024 207.178 37.0332 171.402 37.0438 169.682C37.0559 167.689 35.8929 166.663 33.6226 166.663C32.3973 166.663 31.5265 166.915 31.0864 167.398ZM84.0292 183.986C82.9375 184.739 75.1516 205.536 75.5267 206.698C76.0469 208.31 77.1057 209.075 78.8161 209.075C79.7109 209.075 80.7968 208.832 81.2289 208.534C82.0075 207.997 89.9674 187.835 89.9674 186.4C89.9674 186 89.5519 185.175 89.0441 184.567C88.3412 183.724 87.7243 183.46 86.4571 183.46C85.5418 183.46 84.4492 183.697 84.0292 183.986Z" fill="black"/>
<path fill-rule="evenodd" clip-rule="evenodd" d="M154.33 0.221613C142.61 2.46526 133.526 7.78023 127.948 15.6571C126.787 17.2978 125.833 18.6722 125.829 18.7108C125.825 18.7495 124.726 18.5135 123.387 18.1859C119.674 17.278 111.808 17.407 107.851 18.4408C103.983 19.4516 100.271 21.1552 97.3364 23.267L95.1997 24.8047L92.2497 24.0724C88.4668 23.1339 78.4326 22.7736 74.684 23.4421C68.5773 24.5305 62.934 26.7565 58.1186 29.9753C54.3927 32.4658 49.4321 37.5154 47.2483 41.0406C45.4653 43.9192 43.0485 50.2294 42.5376 53.3402L42.2873 54.8658L38.4006 55.1681C31.4512 55.7086 22.5194 58.2881 21.1323 60.1555C20.1493 61.4787 20.3342 63.26 21.5764 64.4308C22.991 65.7645 23.9772 65.7283 28.1801 64.1868C30.0865 63.4876 33.6694 62.6028 36.1423 62.2199C41.8338 61.3393 47.9017 61.8684 53.9246 63.7707C59.5751 65.5557 60.9283 65.4067 61.8565 62.8968C62.901 60.0716 60.5826 58.3314 53.4435 56.582C51.3612 56.0718 49.5894 55.6078 49.5061 55.5511C49.4223 55.494 49.7649 53.9172 50.2664 52.0464C51.6748 46.7961 53.9317 43.1487 58.3351 39.0065C62.6952 34.9047 65.6461 33.1356 71.1438 31.3274C74.394 30.2587 75.9231 30.0122 80.2926 29.8539C83.4404 29.7397 86.6482 29.8669 88.3101 30.1714C94.8505 31.369 101.768 34.9606 106.172 39.4454C108.973 42.2979 110.512 44.5945 112.484 48.8651C114.186 52.5491 115.016 52.9291 119.115 51.899C120.68 51.506 123.49 51.1843 125.36 51.1843C128.375 51.1843 128.882 51.068 129.852 50.1534C131.321 48.7685 131.299 46.8604 129.798 45.4448C128.673 44.3849 128.545 44.366 123.663 44.5424L118.676 44.7221L116.692 41.3396C114.505 37.6103 107.578 30.6534 104.553 29.148C103.635 28.6911 102.884 28.1746 102.884 27.9999C102.884 27.8257 103.845 27.2239 105.019 26.6629C110.699 23.9494 117.612 23.4518 123.544 25.3292C128.885 27.0194 129.948 26.7557 131.569 23.3413C135.14 15.8163 143.319 9.80762 153.175 7.46822C156.319 6.7216 157.856 6.6078 162.752 6.75813C167.823 6.91393 169.092 7.10541 172.485 8.22619C177.921 10.0218 180.928 11.8056 185.084 15.7008C191.748 21.9472 194.554 29.5238 192.629 36.0805C191.316 40.5586 191.312 40.9457 192.562 42.1253C194.06 43.5371 196.331 43.5875 197.676 42.2378C198.859 41.0499 200.43 35.4771 200.43 32.4646V30.2558L202.1 30.6883C203.019 30.926 205.051 31.6667 206.616 32.334C209.998 33.7764 211.055 33.8369 212.619 32.677C213.96 31.6827 214.204 29.6696 213.155 28.2578C212.262 27.056 206.985 24.8535 202.497 23.8087L198.714 22.9281L197.799 20.8533C195.418 15.4522 188.774 8.44874 183.044 5.29974C176.184 1.53009 169.497 -0.0710732 160.918 0.00241334C157.784 0.0292884 154.82 0.12797 154.33 0.221613ZM218.895 38.3578C217.45 39.7196 217.515 40.8563 219.235 44.3135C221.167 48.197 221.514 53.8071 220.095 58.2126C217.915 64.9784 211.664 70.9291 203.872 73.6569C202.703 74.0663 201.666 74.3258 201.569 74.2339C201.471 74.1419 201.775 72.5554 202.243 70.709C202.712 68.8622 203.097 66.2033 203.099 64.7999C203.102 62.6738 202.931 62.0964 202.072 61.3355C200.658 60.0837 198.467 60.1354 197.069 61.4535C196.21 62.2635 195.976 62.9186 195.976 64.5143C195.976 72.2783 189.756 81.1576 181.705 84.8877C179.858 85.7435 177.736 86.5586 176.991 86.6993C175.667 86.9487 175.612 86.8929 174.619 84.2919C173.175 80.5084 170.853 77.0612 167.725 74.0575C164.314 70.7825 160.708 68.5905 155.923 66.8835L152.17 65.5452L151.574 63.3507C150.346 58.8261 145.671 52.072 143.14 51.1646C141.85 50.7027 139.547 51.4157 138.954 52.4605C138.043 54.0654 138.465 55.6955 140.314 57.7095C142.032 59.5811 144.308 63.2722 144.308 64.1881C144.308 64.4266 143.633 64.6218 142.807 64.6218C137.797 64.6218 128.448 67.214 127.148 68.9634C126.158 70.2963 126.339 72.0751 127.585 73.2492C128.95 74.5371 129.855 74.5387 133.612 73.2609C143.862 69.7751 155.016 71.8764 162.292 78.6641C166.764 82.836 169.251 88.2438 169.251 93.7943C169.251 106.418 158.125 116.272 143.87 116.272C140.231 116.272 134.483 115.18 133.618 114.324C133.417 114.125 134.107 112.598 135.152 110.929C137.015 107.951 138.963 103.033 138.963 101.305C138.963 100.823 138.547 99.9306 138.04 99.3222C137.325 98.4655 136.725 98.2157 135.384 98.2157C133.324 98.2157 132.056 99.2886 131.639 101.384C131.484 102.163 130.529 104.361 129.517 106.267C127.368 110.315 122.131 115.569 117.93 117.891C108.139 123.304 95.3084 124.818 84.1071 121.883L81.5874 121.223L83.4274 116.285L85.267 111.348L87.7101 110.639C90.5033 109.828 94.2773 108.119 95.4238 107.146C96.5885 106.157 96.4291 103.849 95.1097 102.606C93.6844 101.262 92.4595 101.306 89.0151 102.825C83.9757 105.048 79.7225 105.883 73.4871 105.873C69.2535 105.866 67.0718 105.652 64.382 104.976C59.9889 103.873 54.9464 101.556 52.4467 99.4931C49.0776 96.7115 47.6785 96.3655 45.7089 97.8264C44.8047 98.4966 44.5353 99.0673 44.5353 100.31C44.5353 101.65 44.8408 102.198 46.3338 103.534C47.3231 104.42 49.2019 105.809 50.5087 106.621L52.8845 108.097L50.8824 113.45C48.5226 119.758 49.0428 119.441 41.1947 119.352C37.3503 119.308 34.8493 119.042 32.2864 118.405C17.2274 114.66 7.12051 103.575 7.12051 90.8011C7.12051 84.4901 8.77656 79.8634 12.873 74.729C15.8275 71.0265 15.056 67.9812 11.164 67.9812C9.6322 67.9812 9.19258 68.2269 7.59666 69.9759C5.10146 72.71 1.92387 78.638 0.869135 82.5257C-0.195403 86.4503 -0.298294 93.6969 0.650437 97.9188C2.37864 105.608 8.60196 114.035 16.0675 118.794L17.7174 119.846L10.1921 139.75C6.05286 150.697 2.66638 160.272 2.66638 161.029C2.66638 163.367 5.69118 164.894 8.00733 163.726C8.98947 163.23 9.55425 161.858 17.8082 139.933L24.1554 123.072L26.4982 123.832C31.1679 125.346 35.794 126.07 41.0258 126.106L46.2024 126.141L41.477 138.948C37.3645 150.095 36.7512 152.11 36.7463 154.485C36.7414 156.7 36.9423 157.482 37.81 158.629C39.7689 161.218 41.4512 161.604 50.8125 161.615L59.0936 161.624L54.9312 177.677C51.9091 189.333 50.8454 194.115 51.0481 195.134C51.8458 199.143 57.4999 201.178 60.8819 198.673C61.4209 198.274 65.5802 193.336 70.1243 187.701C76.8264 179.389 78.3867 177.202 78.3867 176.121C78.3867 173.132 74.3103 171.837 72.0765 174.117C71.4543 174.752 68.2838 178.578 65.031 182.62C61.7786 186.662 59.233 189.591 59.3742 189.129C60.3327 185.997 67.2514 158.488 67.2514 157.81C67.2514 157.346 66.7592 156.503 66.1579 155.936L65.0648 154.905H54.3544C48.4638 154.905 43.6391 154.764 43.6324 154.59C43.6257 154.417 47.1832 144.49 51.5385 132.529C59.4152 110.897 59.4624 110.785 60.5701 111.048C64.9334 112.084 68.5386 112.562 72.4823 112.627C74.9917 112.669 77.0464 112.767 77.0478 112.846C77.0491 112.924 74.9459 118.551 72.3736 125.35C69.8013 132.149 67.6968 138.252 67.6968 138.913C67.6968 139.574 68.0798 140.561 68.5475 141.106C69.3942 142.093 69.4526 142.098 81.3059 142.308L93.2136 142.518L94.0621 143.59C94.7204 144.422 94.8153 144.893 94.4844 145.69C94.2496 146.255 91.1349 150.307 87.5631 154.695C83.9913 159.084 80.9411 163.113 80.7848 163.65C80.1452 165.846 82.6377 168.216 85.0594 167.715C86.185 167.482 87.6192 165.95 93.2524 158.964C97.0085 154.307 100.385 149.929 100.755 149.236C102.545 145.891 102.017 141.786 99.4311 138.938C96.6469 135.871 95.5271 135.609 85.1917 135.598L76.1846 135.589L77.5498 131.914C78.3003 129.894 79.0463 128.118 79.2076 127.968C79.3684 127.819 81.4044 128.178 83.7317 128.767C87.4375 129.704 88.9034 129.842 95.5351 129.875C101.345 129.904 103.988 129.733 106.893 129.14C113.885 127.711 120.578 124.854 125.888 121.033L127.877 119.602L131.606 120.937L135.334 122.272L134.277 125.046C121.862 157.621 111.347 185.89 111.347 186.69C111.347 188.231 112.067 189.201 113.581 189.698C115.25 190.246 116.839 189.755 117.735 188.413C118.089 187.883 123.852 172.946 130.542 155.22L142.706 122.991L145.623 122.984C151.93 122.968 158.98 120.576 164.665 116.521C167.398 114.573 170.873 110.798 172.702 107.792C174.472 104.884 176.008 100.176 176.255 96.9051L176.497 93.7049L178.801 93.219C183.844 92.1549 190.104 88.6053 194.337 84.4086C195.763 82.9951 197.225 81.8387 197.585 81.8387C197.945 81.8387 199.773 81.5401 201.646 81.1756C212.192 79.1218 220.784 72.9888 225.398 64.2216C228.906 57.5562 228.998 48.1088 225.626 40.9201C223.939 37.3235 221.127 36.2531 218.895 38.3578ZM195.308 92.9297C194.573 93.2375 193.539 93.9388 193.012 94.488C192.442 95.0805 190.03 101.029 187.075 109.134C181.63 124.065 181.397 125.279 183.564 127.466C185.464 129.384 186.681 129.71 191.945 129.71C194.652 129.71 196.867 129.794 196.867 129.898C196.867 130.001 196.053 133.166 195.059 136.931C193.888 141.364 193.324 144.338 193.46 145.368C193.897 148.694 196.487 150.702 200.344 150.704C202.527 150.706 202.858 150.569 204.642 148.921C206.613 147.102 225.557 123.749 227.229 121.078C228.47 119.094 228.251 114.954 226.803 113.036C225.045 110.71 222.678 109.974 216.955 109.974C213.115 109.974 211.99 109.85 212.166 109.449C212.292 109.16 213.216 106.601 214.22 103.762C215.882 99.0597 216 98.4462 215.547 96.8627C214.959 94.8025 213.039 92.9717 211.08 92.6021C208.387 92.0945 196.723 92.3363 195.308 92.9297ZM205.968 105.588C203.19 113.086 203.011 114.554 204.722 115.822C205.804 116.625 206.481 116.692 213.438 116.692C220.404 116.692 220.97 116.749 220.839 117.434C220.692 118.198 201.722 141.986 201.458 141.737C201.377 141.66 202.201 138.158 203.29 133.954C205.391 125.841 205.424 124.358 203.531 123.402C203.082 123.176 199.775 122.991 196.18 122.991C191.139 122.991 189.692 122.871 189.85 122.466C189.963 122.178 191.934 116.792 194.229 110.498L198.404 99.0555H203.396H208.388L205.968 105.588ZM164.371 127.931C163.662 128.472 159.512 138.952 148.955 166.858C141.01 187.861 134.509 205.574 134.509 206.22C134.509 206.867 134.91 207.774 135.4 208.235C136.582 209.35 139.429 209.373 140.481 208.277C141.187 207.543 170.125 131.816 170.137 130.674C170.148 129.618 169.11 128.105 168.068 127.656C166.535 126.998 165.491 127.076 164.371 127.931ZM182.712 154.393C181.944 155.116 170.142 185.59 170.142 186.848C170.142 187.808 171.45 189.349 172.62 189.769C173.925 190.237 176.23 189.543 176.82 188.506C178.033 186.368 188.404 158.03 188.404 156.852C188.404 154.18 184.655 152.56 182.712 154.393ZM31.0864 167.398C30.1613 168.413 16.4635 204.812 16.4693 206.241C16.472 206.876 16.8751 207.774 17.365 208.235C18.5467 209.35 21.3947 209.373 22.4463 208.278C23.5024 207.178 37.0332 171.402 37.0438 169.682C37.0559 167.689 35.8929 166.663 33.6226 166.663C32.3973 166.663 31.5265 166.915 31.0864 167.398ZM84.0292 183.986C82.9375 184.739 75.1516 205.536 75.5267 206.698C76.0469 208.31 77.1057 209.075 78.8161 209.075C79.7109 209.075 80.7968 208.832 81.2289 208.534C82.0075 207.997 89.9674 187.835 89.9674 186.4C89.9674 186 89.5519 185.175 89.0441 184.567C88.3412 183.724 87.7243 183.46 86.4571 183.46C85.5418 183.46 84.4492 183.697 84.0292 183.986Z" fill="url(#paint0_linear_31_194)"/>
<defs>
<linearGradient id="paint0_linear_31_194" x1="204.579" y1="209.086" x2="114.047" y2="209.086" gradientUnits="userSpaceOnUse">
<stop offset="0.386875" stop-color="#0BFF4F"/>
<stop offset="0.657724" stop-color="#6167FF"/>
<stop offset="0.791743" stop-color="#3B43FF"/>
<stop offset="1" stop-color="#000AFF"/>
</linearGradient>
</defs>
</svg>
